<?xml version="1.0" encoding="iso-8859-1"?>
<!-- Generator: Adobe Illustrator 19.0.0, SVG Export Plug-In . SVG Version: 6.00 Build 0)  -->
<svg version="1.1" id="Capa_1" xmlns="http://www.w3.org/2000/svg" xmlns:xlink="http://www.w3.org/1999/xlink" x="0px" y="0px"
	 viewBox="0 0 512 512" style="enable-background:new 0 0 512 512;" xml:space="preserve">
<path style="fill:#8ADEFF;" d="M300.301,503.992H108.114c-8.846,0-16.016-7.17-16.016-16.016V103.601
	c0-8.846,7.17-16.016,16.016-16.016h192.188c8.846,0,16.016,7.17,16.016,16.016v384.375
	C316.317,496.822,309.146,503.992,300.301,503.992z"/>
<g>
	<path style="fill:#2FB6EB;" d="M108.114,87.586v416.407c-8.849,0-16.016-7.167-16.016-16.016V103.601
		C92.098,94.753,99.265,87.586,108.114,87.586z"/>
	<path style="fill:#2FB6EB;" d="M300.301,87.586v416.407c9.009,0,16.016-7.167,16.016-16.016V103.601
		C316.317,94.753,309.31,87.586,300.301,87.586z"/>
</g>
<g>
	<path style="fill:#57565C;" d="M316.317,471.961v16.016c0,8.849-7.167,16.016-16.016,16.016H108.114
		c-8.849,0-16.016-7.167-16.016-16.016v-16.016H316.317z"/>
	<path style="fill:#57565C;" d="M244.247,119.617h-80.078c-8.846,0-16.016-7.17-16.016-16.016V87.586h112.109v16.016
		C260.262,112.447,253.091,119.617,244.247,119.617z"/>
</g>
<rect x="124.131" y="151.648" style="fill:#FFDA44;" width="160.156" height="160.156"/>
<rect x="164.17" y="151.648" style="fill:#FFA733;" width="120.117" height="40.039"/>
<g>
	<rect x="124.131" y="151.648" style="fill:#26DEC7;" width="40.039" height="40.039"/>
	<rect x="220.225" y="255.75" style="fill:#26DEC7;" width="64.063" height="56.055"/>
</g>
<rect x="164.17" y="255.75" style="fill:#FFA733;" width="56.055" height="56.055"/>
<rect x="220.225" y="191.687" style="fill:#008F7D;" width="64.063" height="32.031"/>
<path style="fill:#FF6243;" d="M420.419,71.57c0,35.381-64.063,120.117-64.063,120.117S292.293,106.95,292.293,71.57
	s28.682-64.063,64.063-64.063S420.419,36.189,420.419,71.57z"/>
<circle style="fill:#FFFFFF;" cx="356.358" cy="71.57" r="24.023"/>
<rect x="164.17" y="440.931" width="80.078" height="15.015"/>
<path d="M116.121,319.812h175.171V144.641H116.121C116.121,144.641,116.121,319.812,116.121,319.812z M276.278,304.798H227.23
	v-41.04h49.048V304.798z M276.278,248.743H227.23v-17.017h49.048V248.743z M276.278,216.712H227.23v-17.017h49.048V216.712z
	 M171.175,159.656h105.103v25.024H171.175V159.656z M171.175,199.695h41.04v49.048h-41.04V199.695z M171.175,263.758h41.04v41.04
	h-41.04V263.758z M131.136,159.656h25.024v25.024h-25.024V159.656z M131.136,199.695h25.024v105.103h-25.024V199.695z"/>
<path d="M356.356,0c-39.464,0-71.57,32.357-71.57,71.82c0,2.582,0.29,4.755,0.863,8.759H108.114
	c-12.971,0-24.023,10.052-24.023,23.022v384.375c0,12.971,11.053,24.023,24.023,24.023h192.188
	c12.971,0,23.022-11.053,23.022-24.023V158.069c14.014,21.355,26.651,37.957,26.794,38.145l6.113,7.921l6.051-7.921
	c0.162-0.215,16.433-21.746,32.439-47.337c22.013-35.195,33.189-61.206,33.189-77.307C427.91,32.106,395.82,0,356.356,0z
	 M155.16,95.593h97.095v8.008c0,4.692-3.316,9.009-8.008,9.009h-80.078c-4.691,0-9.009-4.317-9.009-9.009V95.593z M308.309,487.977
	c0,4.691-3.317,9.009-8.008,9.009H108.114c-4.692,0-9.009-4.318-9.009-9.009V477.87c3.003,1.028,6.009,2.099,9.009,2.099h192.188
	c3,0,6.006-1.071,8.008-2.099V487.977z M308.309,455.945c0,4.691-3.317,9.009-8.008,9.009H108.114c-4.692,0-9.009-4.318-9.009-9.009
	V103.601c0-4.692,4.317-8.008,9.009-8.008h32.031v8.008c0,12.971,11.053,24.023,24.023,24.023h80.078
	c12.971,0,23.022-11.053,23.022-24.023v-8.008h22.672c3.99,10.01,10.36,23.265,18.368,38.101V455.945z M356.355,179.045
	c-19.999-27.653-56.554-83.216-56.554-107.475c0-31.184,25.371-56.555,56.555-56.555s56.555,25.371,56.555,56.555
	C412.911,95.814,376.353,151.386,356.355,179.045z"/>
<path d="M356.356,40.039c-17.386,0-31.531,14.145-31.531,31.531s14.145,31.531,31.531,31.531c17.386,0,31.531-14.145,31.531-31.531
	S373.742,40.039,356.356,40.039z M356.356,88.086c-9.107,0-16.516-7.409-16.516-16.516s7.409-16.516,16.516-16.516
	c9.107,0,16.516,7.409,16.516,16.516S365.462,88.086,356.356,88.086z"/>
<g>
	<rect x="148.155" y="344.336" style="fill:#FFFFFF;" width="16.016" height="15.015"/>
	<rect x="244.249" y="344.336" style="fill:#FFFFFF;" width="16.016" height="15.015"/>
	<rect x="196.202" y="344.336" style="fill:#FFFFFF;" width="16.016" height="15.015"/>
</g>
<g>
</g>
<g>
</g>
<g>
</g>
<g>
</g>
<g>
</g>
<g>
</g>
<g>
</g>
<g>
</g>
<g>
</g>
<g>
</g>
<g>
</g>
<g>
</g>
<g>
</g>
<g>
</g>
<g>
</g>
</svg>
