<?xml version="1.0" encoding="iso-8859-1"?>
<!-- Generator: Adobe Illustrator 19.0.0, SVG Export Plug-In . SVG Version: 6.00 Build 0)  -->
<svg version="1.1" id="Capa_1" xmlns="http://www.w3.org/2000/svg" xmlns:xlink="http://www.w3.org/1999/xlink" x="0px" y="0px"
	 viewBox="0 0 512.001 512.001" style="enable-background:new 0 0 512.001 512.001;" xml:space="preserve">
<rect x="80.288" y="151.555" style="fill:#8ADEFF;" width="352.43" height="352.43"/>
<g>
	<rect x="80.288" y="151.555" style="fill:#2FB6EB;" width="352.43" height="24.029"/>
	<rect x="80.288" y="151.555" style="fill:#2FB6EB;" width="24.029" height="352.43"/>
</g>
<rect x="144.366" y="151.555" style="fill:#FFA733;" width="32.039" height="352.43"/>
<rect x="80.288" y="263.692" style="fill:#FFDA44;" width="352.43" height="32.039"/>
<path style="fill:#FF6243;" d="M320.579,71.462c0,35.389-64.078,120.147-64.078,120.147s-64.078-84.757-64.078-120.147
	s28.689-64.078,64.078-64.078S320.579,36.073,320.579,71.462z"/>
<circle style="fill:#FFFFFF;" cx="256.503" cy="71.457" r="24.029"/>
<g>
	<circle style="fill:#FFDA44;" cx="272.523" cy="399.858" r="16.02"/>
	<circle style="fill:#FFDA44;" cx="360.63" cy="207.623" r="16.02"/>
</g>
<path d="M288.04,71.462c0-17.39-14.148-31.538-31.538-31.538c-17.39,0-31.539,14.148-31.539,31.538s14.148,31.539,31.539,31.539
	S288.04,88.852,288.04,71.462z M239.981,71.462c0-9.109,7.411-16.52,16.52-16.52c9.109,0,16.52,7.411,16.52,16.52
	s-7.411,16.52-16.52,16.52C247.391,87.982,239.981,80.571,239.981,71.462z"/>
<path d="M297.835,144.551c20.074-33.04,30.254-57.465,30.254-72.839C328.089,32.239,295.974,0,256.501,0
	s-71.587,32.302-71.587,71.776c0,15.374,10.179,39.737,30.254,72.777H72.276v367.449h367.449V144.552h-141.89V144.551z
	 M360.628,199.118c4.693,0,8.51,3.819,8.51,8.51s-3.818,8.51-8.51,8.51s-8.51-3.819-8.51-8.51S355.935,199.118,360.628,199.118z
	 M199.932,71.462c0-31.192,25.377-56.569,56.569-56.569S313.07,40.27,313.07,71.462c0,24.25-36.567,79.835-56.57,107.501
	C236.497,151.304,199.932,95.727,199.932,71.462z M183.412,159.57h41.05v-0.818c13.683,20.988,25.909,37.2,26.049,37.387l5.99,7.923
	l5.99-7.672c0.139-0.185,12.243-16.794,25.842-36.818h64.285v25.765c-9.011,3.142-16.02,11.945-16.02,22.293
	s7.009,19.151,16.02,22.293v26.767H183.412L183.412,159.57L183.412,159.57z M151.373,159.57h17.021v97.119h-17.021V159.57z
	 M87.295,159.57h49.06v41.05h-49.06V159.57z M87.295,215.638h49.06v41.05h-49.06V215.638z M136.354,496.982h-49.06v-89.109h49.06
	V496.982z M136.354,392.855h-49.06v-89.109h49.06V392.855z M168.394,496.982h-17.021V303.746h17.021V496.982z M328.589,496.982
	H183.412v-89.109h66.816c3.142,9.011,11.945,16.02,22.293,16.02s19.151-7.009,22.293-16.02h33.775V496.982z M264.511,377.57
	c-6.007,2.345-11.939,8.276-14.283,15.285h-66.816v-89.109h81.099V377.57z M272.521,391.353c4.693,0,8.51,3.819,8.51,8.51
	c0,4.692-3.818,8.51-8.51,8.51c-4.693,0-8.51-3.819-8.51-8.51C264.01,395.171,267.827,391.353,272.521,391.353z M424.706,496.982
	h-81.099v-89.109h81.099V496.982z M424.706,392.855H294.813c-2.345-7.009-8.276-12.94-15.285-15.285v-73.824h145.177
	L424.706,392.855L424.706,392.855z M424.706,288.727H87.295v-17.021h337.412V288.727z M424.706,256.688h-57.07v-26.767
	c10.012-3.142,16.02-11.945,16.02-22.293s-6.007-19.151-16.02-22.293V159.57h57.07V256.688z"/>
<g>
	<rect x="376.65" y="464.437" style="fill:#FFFFFF;" width="16.02" height="15.018"/>
	<rect x="392.669" y="448.417" style="fill:#FFFFFF;" width="16.02" height="15.018"/>
	<rect x="208.444" y="200.114" style="fill:#FFFFFF;" width="16.02" height="15.018"/>
	<rect x="392.669" y="360.31" style="fill:#FFFFFF;" width="16.02" height="15.018"/>
	<rect x="392.669" y="320.261" style="fill:#FFFFFF;" width="16.02" height="15.018"/>
	<rect x="104.317" y="440.408" style="fill:#FFFFFF;" width="16.02" height="15.018"/>
</g>
<g>
</g>
<g>
</g>
<g>
</g>
<g>
</g>
<g>
</g>
<g>
</g>
<g>
</g>
<g>
</g>
<g>
</g>
<g>
</g>
<g>
</g>
<g>
</g>
<g>
</g>
<g>
</g>
<g>
</g>
</svg>
