<?xml version="1.0" encoding="iso-8859-1"?>
<!-- Generator: Adobe Illustrator 19.0.0, SVG Export Plug-In . SVG Version: 6.00 Build 0)  -->
<svg version="1.1" id="Capa_1" xmlns="http://www.w3.org/2000/svg" xmlns:xlink="http://www.w3.org/1999/xlink" x="0px" y="0px"
	 viewBox="0 0 512 512" style="enable-background:new 0 0 512 512;" xml:space="preserve">
<rect x="232.454" y="7.014" style="fill:#CC6D1B;" width="32.063" height="464.908"/>
<g>
	<rect x="232.454" y="119.233" style="fill:#9A4C00;" width="32.063" height="16.031"/>
	<rect x="232.454" y="231.452" style="fill:#9A4C00;" width="32.063" height="16.031"/>
	<rect x="232.454" y="343.671" style="fill:#9A4C00;" width="32.063" height="16.031"/>
	<rect x="192.376" y="471.922" style="fill:#9A4C00;" width="112.219" height="32.063"/>
</g>
<polygon style="fill:#FFDA44;" points="384.751,119.233 96.188,119.233 96.188,55.108 384.751,55.108 432.845,86.168 
	432.845,88.172 "/>
<polyline style="fill:#FFA733;" points="128.25,119.233 128.25,55.108 96.188,55.108 96.188,119.233 "/>
<polygon style="fill:#FFDA44;" points="128.25,231.452 416.814,231.452 416.814,167.327 128.25,167.327 80.157,198.387 
	80.157,200.391 "/>
<polyline style="fill:#FFA733;" points="416.814,231.452 416.814,167.327 384.751,167.327 384.751,231.452 "/>
<polygon style="fill:#FFDA44;" points="384.751,343.671 96.188,343.671 96.188,279.546 384.751,279.546 432.845,310.607 
	432.845,312.611 "/>
<polyline style="fill:#FFA733;" points="128.25,343.671 128.25,279.546 96.188,279.546 96.188,343.671 "/>
<g>
	<rect x="288.564" y="191.875" style="fill:#FFFFFF;" width="16.031" height="15.029"/>
	<rect x="240.47" y="191.875" style="fill:#FFFFFF;" width="16.031" height="15.029"/>
	<rect x="192.376" y="191.875" style="fill:#FFFFFF;" width="16.031" height="15.029"/>
	<rect x="288.564" y="79.656" style="fill:#FFFFFF;" width="16.031" height="15.029"/>
	<rect x="240.47" y="79.656" style="fill:#FFFFFF;" width="16.031" height="15.029"/>
	<rect x="192.376" y="79.656" style="fill:#FFFFFF;" width="16.031" height="15.029"/>
	<rect x="288.564" y="304.094" style="fill:#FFFFFF;" width="16.031" height="15.029"/>
	<rect x="240.47" y="304.094" style="fill:#FFFFFF;" width="16.031" height="15.029"/>
	<rect x="192.376" y="304.094" style="fill:#FFFFFF;" width="16.031" height="15.029"/>
</g>
<path d="M386.967,127.249l52.892-34.983v-10.19l-52.892-33.981H271.53V0h-47.092v48.094H88.172v79.155h136.266v33.065h-98.403
	l-53.894,33.981v10.189l53.894,34.984h98.403v33.065H88.172v79.155h136.266v113.221H184.36V512h127.249v-47.092H271.53V351.687
	h115.436l52.892-34.983v-10.189l-52.892-33.982H271.53v-33.065h152.297v-79.155H271.53v-33.065H386.967z M239.468,15.029h17.033
	v33.065h-17.033V15.029z M120.235,112.219h-17.033V63.123h17.033V112.219z M120.235,336.658h-17.033v-49.096h17.033V336.658z
	 M296.579,479.937v17.033h-97.19v-17.033H296.579z M239.468,464.908V351.687h17.033v113.221H239.468z M216.423,336.658h-81.159
	v-49.096h247.272l38.01,24.548l-38.01,24.548H216.423 M239.468,272.532v-33.065h17.033v33.065H239.468z M391.765,175.342h17.033
	v49.096h-17.033V175.342z M376.736,175.342v49.096h-246.27L92.457,199.89l38.009-24.548H376.736z M239.468,160.313v-33.065h17.033
	v33.065H239.468z M135.264,112.219V63.123h247.272l38.01,24.548l-38.01,24.548H135.264z"/>
<g>
</g>
<g>
</g>
<g>
</g>
<g>
</g>
<g>
</g>
<g>
</g>
<g>
</g>
<g>
</g>
<g>
</g>
<g>
</g>
<g>
</g>
<g>
</g>
<g>
</g>
<g>
</g>
<g>
</g>
</svg>
