<?xml version="1.0" encoding="iso-8859-1"?>
<!-- Generator: Adobe Illustrator 19.0.0, SVG Export Plug-In . SVG Version: 6.00 Build 0)  -->
<svg version="1.1" id="Capa_1" xmlns="http://www.w3.org/2000/svg" xmlns:xlink="http://www.w3.org/1999/xlink" x="0px" y="0px"
	 viewBox="0 0 512 512" style="enable-background:new 0 0 512 512;" xml:space="preserve">
<circle style="fill:#FFA733;" cx="111.718" cy="368.219" r="104.204"/>
<circle style="fill:#FFDA44;" cx="111.718" cy="368.219" r="72.141"/>
<path style="fill:#FFA733;" d="M135.701,300.178c19.367,12.936,32.127,34.988,32.127,60.025c0,39.842-32.299,72.141-72.141,72.141
	c-8.41,0-16.478-1.454-23.983-4.1c11.451,7.65,25.209,12.116,40.014,12.116c39.842,0,72.141-32.299,72.141-72.141
	C183.859,336.787,163.751,310.066,135.701,300.178z"/>
<g>
	<rect x="143.781" y="360.704" style="fill:#FFFFFF;" width="16.031" height="15.029"/>
	<rect x="63.624" y="376.736" style="fill:#FFFFFF;" width="16.031" height="15.029"/>
</g>
<circle style="fill:#FFA733;" cx="400.282" cy="143.781" r="104.204"/>
<circle style="fill:#FFDA44;" cx="400.282" cy="143.781" r="72.141"/>
<path style="fill:#FFA733;" d="M424.265,75.74c19.367,12.936,32.127,34.988,32.127,60.025c0,39.842-32.299,72.141-72.141,72.141
	c-8.41,0-16.478-1.454-23.983-4.1c11.451,7.649,25.21,12.116,40.014,12.116c39.842,0,72.141-32.299,72.141-72.141
	C472.423,112.349,452.314,85.627,424.265,75.74z"/>
<path d="M157.11,205.204l-10.627-10.627l-18.012,18.012c9.545-75.145,73.88-133.435,151.576-133.435V64.125
	c-86.714,0-158.277,66.106-166.945,150.568l-20.116-20.116l-10.627,10.627l37.376,37.376L157.11,205.204z"/>
<path d="M354.89,306.796l10.627,10.627l18.012-18.012c-9.545,75.145-73.881,133.435-151.576,133.435v15.029
	c86.714,0,158.277-66.106,166.945-150.568l20.116,20.116l10.627-10.627l-37.375-37.376L354.89,306.796z"/>
<path d="M111.718,256.501C50.117,256.501,0,306.618,0,368.219s50.117,111.718,111.718,111.718s111.718-50.117,111.718-111.718
	S173.32,256.501,111.718,256.501z M118.732,271.821c21.041,1.623,40.301,10.002,55.426,22.956l-11.956,12.082
	c-11.973-9.917-26.437-16.394-43.47-17.93V271.821z M103.703,271.821v17.107c-16.031,1.536-30.996,8.012-42.969,17.93
	l-12.207-12.082C63.652,281.821,83.663,273.444,103.703,271.821z M38.276,305.779l12.082,11.956
	c-9.917,11.973-16.394,26.437-17.93,43.47H15.32C16.943,340.164,25.32,320.905,38.276,305.779z M15.32,376.235h17.108
	c1.536,16.031,8.013,30.996,17.93,42.969l-12.082,12.207C25.32,416.285,16.943,396.274,15.32,376.235z M103.703,464.617
	c-20.039-1.623-40.05-10.002-55.176-22.956l12.207-12.082c11.973,9.917,26.938,16.394,42.969,17.93V464.617z M47.092,368.219
	c0-35.635,28.992-64.626,64.626-64.626s64.626,28.992,64.626,64.626s-28.992,64.626-64.626,64.626S47.092,403.854,47.092,368.219z
	 M118.732,464.617v-17.108c17.033-1.536,31.496-8.012,43.47-17.93l11.956,12.082C159.033,454.617,139.773,462.994,118.732,464.617z
	 M185.161,431.411l-12.082-12.207c9.917-11.973,16.394-26.938,17.93-42.969h17.107C206.493,396.274,198.116,416.285,185.161,431.411
	z M191.009,361.205c-1.536-17.033-8.013-31.497-17.93-43.47l12.082-11.956c12.955,15.125,21.333,34.385,22.956,55.426
	L191.009,361.205L191.009,361.205z"/>
<polygon points="118.732,320.125 103.703,320.125 103.703,329.143 87.671,329.143 87.671,376.235 119.734,376.235 119.734,393.268 
	87.671,393.268 87.671,408.297 103.703,408.297 103.703,416.313 118.732,416.313 118.732,408.297 134.763,408.297 134.763,361.205 
	102.701,361.205 102.701,344.172 135.765,344.172 135.765,329.143 118.732,329.143 "/>
<path d="M400.282,32.063c-61.601,0-111.718,50.117-111.718,111.718s50.117,111.718,111.718,111.718S512,205.382,512,143.781
	S461.883,32.063,400.282,32.063z M496.68,136.767h-17.107c-1.536-17.033-8.013-31.497-17.93-43.47l12.082-11.956
	C486.68,96.466,495.057,115.726,496.68,136.767z M407.296,47.383c21.041,1.623,40.301,10.002,55.426,22.956L450.765,82.42
	c-11.973-9.917-26.437-16.394-43.47-17.93L407.296,47.383L407.296,47.383z M392.266,47.383V64.49
	c-16.031,1.536-30.996,8.013-42.969,17.93L337.09,70.338C352.216,57.383,372.227,49.006,392.266,47.383z M326.839,81.341
	l12.082,11.956c-9.917,11.973-16.394,26.437-17.93,43.47h-17.107C305.507,115.726,313.884,96.466,326.839,81.341z M303.884,151.796
	h17.108c1.536,16.031,8.013,30.996,17.93,42.969l-12.082,12.207C313.884,191.847,305.507,171.836,303.884,151.796z M392.266,240.179
	c-20.039-1.623-40.05-10.002-55.176-22.956l12.207-12.082c11.973,9.917,26.938,16.394,42.969,17.93L392.266,240.179L392.266,240.179
	z M335.656,143.781c0-35.635,28.992-64.626,64.626-64.626s64.626,28.992,64.626,64.626s-28.992,64.626-64.626,64.626
	S335.656,179.415,335.656,143.781z M407.296,240.179v-17.108c17.033-1.536,31.496-8.012,43.47-17.93l11.956,12.082
	C447.596,230.179,428.337,238.556,407.296,240.179z M473.724,206.972l-12.082-12.207c9.917-11.973,16.394-26.938,17.93-42.969
	h17.107C495.057,171.836,486.68,191.847,473.724,206.972z"/>
<path d="M382.994,120.736h-22.791v15.029h17.311c-0.502,2.004-0.779,5.609-0.779,8.517s0.277,5.511,0.779,8.517h-17.311v15.029
	h22.791c8.206,14.027,23.654,23.546,41.335,23.546v-15.029c-8.702,0-16.61-3.507-22.459-8.517h22.459v-15.029h-31.426
	c-0.737-3.006-1.137-5.57-1.137-8.517s0.401-6.513,1.137-8.517h31.426v-15.029H401.87c5.847-6.012,13.757-9.519,22.459-9.519V96.188
	C406.648,96.188,391.201,105.706,382.994,120.736z"/>
<rect x="432.344" y="136.266" style="fill:#FFFFFF;" width="16.031" height="15.029"/>
<g>
</g>
<g>
</g>
<g>
</g>
<g>
</g>
<g>
</g>
<g>
</g>
<g>
</g>
<g>
</g>
<g>
</g>
<g>
</g>
<g>
</g>
<g>
</g>
<g>
</g>
<g>
</g>
<g>
</g>
</svg>
