<?xml version="1.0" encoding="iso-8859-1"?>
<!-- Generator: Adobe Illustrator 19.0.0, SVG Export Plug-In . SVG Version: 6.00 Build 0)  -->
<svg version="1.1" id="Capa_1" xmlns="http://www.w3.org/2000/svg" xmlns:xlink="http://www.w3.org/1999/xlink" x="0px" y="0px"
	 viewBox="0 0 512 512" style="enable-background:new 0 0 512 512;" xml:space="preserve">
<polyline style="fill:#FF6243;" points="200.391,31.061 216.423,7.014 296.579,7.014 312.611,31.061 "/>
<rect x="80.157" y="31.061" style="fill:#57565C;" width="352.689" height="352.689"/>
<g>
	<circle style="fill:#3E3D42;" cx="256.501" cy="207.405" r="114.223"/>
	<rect x="80.157" y="367.718" style="fill:#3E3D42;" width="352.689" height="16.031"/>
	<rect x="80.157" y="31.061" style="fill:#3E3D42;" width="24.047" height="352.689"/>
</g>
<g>
	<rect x="376.736" y="288.063" style="fill:#FFFFFF;" width="16.031" height="15.029"/>
	<rect x="392.767" y="272.031" style="fill:#FFFFFF;" width="16.031" height="15.029"/>
</g>
<rect x="80.157" y="159.311" style="fill:#D80027;" width="352.689" height="32.063"/>
<g>
	<path style="fill:#FF6243;" d="M152.876,159.311H80.157v32.063h63.247C144.991,180.071,148.232,169.3,152.876,159.311z"/>
	<path style="fill:#FF6243;" d="M360.126,159.311c4.644,9.988,7.884,20.76,9.473,32.063h63.247v-32.063H360.126z"/>
</g>
<rect x="80.157" y="191.374" style="fill:#FF8B00;" width="352.689" height="32.063"/>
<g>
	<path style="fill:#FFA733;" d="M142.278,207.405c0-5.442,0.389-10.792,1.125-16.031H80.157v32.063h63.247
		C142.667,218.197,142.278,212.847,142.278,207.405z"/>
	<path style="fill:#FFA733;" d="M369.599,191.374c0.736,5.239,1.125,10.59,1.125,16.031c0,5.442-0.389,10.792-1.125,16.031h63.247
		v-32.063H369.599z"/>
</g>
<g>
	<rect x="112.219" y="63.123" style="fill:#FFDA44;" width="64.125" height="32.063"/>
	<rect x="360.704" y="63.123" style="fill:#FFDA44;" width="40.078" height="32.063"/>
	<circle style="fill:#FFDA44;" cx="256.501" cy="207.405" r="96.188"/>
</g>
<circle style="fill:#8ADEFF;" cx="256.501" cy="207.405" r="64.125"/>
<path style="fill:#2FB6EB;" d="M216.423,207.405c0-31.304,22.436-57.353,52.102-62.983c-3.897-0.739-7.912-1.142-12.023-1.142
	c-35.415,0-64.125,28.71-64.125,64.125s28.71,64.125,64.125,64.125c4.111,0,8.127-0.403,12.023-1.142
	C238.859,264.758,216.423,238.709,216.423,207.405z"/>
<rect x="152.297" y="351.687" style="fill:#FFFFFF;" width="208.407" height="152.297"/>
<rect x="152.297" y="351.687" style="fill:#D8D7DA;" width="53.104" height="152.297"/>
<rect x="184.36" y="351.687" style="fill:#8ADEFF;" width="144.282" height="120.235"/>
<polygon style="fill:#2FB6EB;" points="184.36,351.687 184.36,471.922 205.401,471.922 205.401,370.724 328.642,370.724 
	328.642,351.687 "/>
<g>
	<rect x="280.548" y="440.36" style="fill:#FFFFFF;" width="16.031" height="15.029"/>
	<rect x="296.579" y="424.329" style="fill:#FFFFFF;" width="16.031" height="15.029"/>
</g>
<circle style="fill:#8ADEFF;" cx="128.25" cy="279.546" r="16.031"/>
<path d="M439.859,24.047H316.632L300.601,0h-88.199l-16.031,24.047H72.141v367.718h72.141V512h223.436V391.765h72.141V24.047z
	 M220.445,15.029h72.114l6.012,9.018h-84.137L220.445,15.029z M424.83,39.076v113.221h-80.157v0.581
	c-18.305-29.493-50.981-49.176-88.172-49.176s-69.867,19.683-88.172,49.176v-0.581H87.17V39.076H424.83z M359.852,199.389h64.978
	v17.033h-64.978c0.229-3.006,0.352-5.649,0.352-8.517S360.081,201.393,359.852,199.389z M357.505,184.36
	c-1.372-6.012-3.246-12.023-5.575-17.033h72.899v17.033H357.505z M153.15,216.423H87.17v-17.033h65.98
	c-0.229,2.004-0.352,5.649-0.352,8.517S152.921,213.417,153.15,216.423z M155.497,184.36H87.17v-17.033h73.901
	C158.743,172.337,156.867,178.348,155.497,184.36z M256.501,118.732c48.895,0,88.673,39.779,88.673,88.673
	s-39.779,88.673-88.673,88.673s-88.673-39.779-88.673-88.673S207.606,118.732,256.501,118.732z M352.689,496.971H159.311V359.703
	h17.033v120.235h159.311V359.703h17.033V496.971z M191.374,359.703h129.252v105.205H191.374V359.703z M367.718,376.736v-32.063
	H144.282v32.063H87.17V231.452h68.326c10.692,45.088,51.919,80.157,101.004,80.157s90.313-35.069,101.004-80.157h67.324v145.284
	H367.718z"/>
<path d="M183.358,56.11h-79.155v47.092h79.155V56.11z M168.329,88.172h-49.096V71.139h49.096V88.172z"/>
<path d="M407.796,56.11h-55.108v47.092h55.108V56.11z M392.767,88.172h-25.049V71.139h25.049V88.172z"/>
<path d="M256.501,279.045c39.502,0,71.64-32.138,71.64-71.64s-32.138-71.64-71.64-71.64s-71.64,32.138-71.64,71.64
	S216.999,279.045,256.501,279.045z M256.501,150.795c31.215,0,56.611,25.396,56.611,56.611s-25.396,56.611-56.611,56.611
	s-56.611-25.396-56.611-56.611S225.286,150.795,256.501,150.795z"/>
<polygon points="112.219,359.703 127.249,359.703 127.249,335.656 384.751,335.656 384.751,359.703 399.781,359.703 
	399.781,320.626 112.219,320.626 "/>
<path d="M151.796,279.546c0-12.983-10.563-23.546-23.546-23.546s-23.546,10.563-23.546,23.546s10.563,23.546,23.546,23.546
	S151.796,292.529,151.796,279.546z M119.734,279.546c0-4.696,3.82-8.517,8.517-8.517s8.517,3.82,8.517,8.517
	c0,4.696-3.82,8.517-8.517,8.517S119.734,284.242,119.734,279.546z"/>
<g>
	<rect x="272.532" y="55.609" style="fill:#FFFFFF;" width="16.031" height="15.029"/>
	<rect x="224.438" y="55.609" style="fill:#FFFFFF;" width="16.031" height="15.029"/>
</g>
<g>
</g>
<g>
</g>
<g>
</g>
<g>
</g>
<g>
</g>
<g>
</g>
<g>
</g>
<g>
</g>
<g>
</g>
<g>
</g>
<g>
</g>
<g>
</g>
<g>
</g>
<g>
</g>
<g>
</g>
</svg>
