<?xml version="1.0" encoding="iso-8859-1"?>
<!-- Generator: Adobe Illustrator 19.0.0, SVG Export Plug-In . SVG Version: 6.00 Build 0)  -->
<svg version="1.1" id="Capa_1" xmlns="http://www.w3.org/2000/svg" xmlns:xlink="http://www.w3.org/1999/xlink" x="0px" y="0px"
	 viewBox="0 0 512.001 512.001" style="enable-background:new 0 0 512.001 512.001;" xml:space="preserve">
<path style="fill:#D8D8E4;" d="M136.003,501.98l119.995-393.998L375.993,501.98H136.003z"/>
<circle style="fill:#FF5D5D;" cx="256" cy="80.707" r="19.999"/>
<path d="M447.99,491.981h-64.589l-17.905-58.794c-1.609-5.284-7.194-8.26-12.479-6.653c-5.283,1.609-8.262,7.196-6.653,12.479
	l13.887,45.598l-90.216-90.215l48.093-48.093l3.737,12.269c1.609,5.282,7.196,8.259,12.479,6.653
	c5.283-1.609,8.262-7.196,6.653-12.478l-74.317-244.011c11.282-4.314,19.317-15.246,19.317-28.026
	c0-16.541-13.457-29.999-29.999-29.999s-29.999,13.457-29.999,29.999c0,12.779,8.036,23.712,19.317,28.026L128.595,491.981H103.67
	c-5.523,0-10,4.478-10,10s4.477,10,10,10c0,0,259.683,0.021,259.826,0.021s84.493-0.021,84.493-0.021c5.523,0,10-4.478,10-10
	S453.513,491.981,447.99,491.981z M339.335,491.981H172.448l83.444-83.444L339.335,491.981z M223.324,249.588l18.426,18.426
	l-34.565,34.565L223.324,249.588z M304.903,302.882l-34.869-34.869l18.588-18.588L304.903,302.882z M255.892,253.871l-25.965-25.965
	l26.071-85.601l26.021,85.439L255.892,253.871z M193.819,346.465l47.931,47.931l-89.911,89.911L193.819,346.465z M206.842,331.204
	l49.05-49.049l49.05,49.05l-49.05,49.049L206.842,331.204z M255.998,70.708c5.514,0,10,4.486,10,10c0,5.514-4.486,10-10,10
	s-10-4.486-10-10C245.998,75.194,250.484,70.708,255.998,70.708z"/>
<path d="M64.016,491.981h-0.01c-5.523,0-9.995,4.478-9.995,10s4.482,10,10.005,10c5.523,0,10-4.478,10-10
	S69.539,491.981,64.016,491.981z"/>
<path d="M289.736,128.587c1.953,1.953,4.512,2.929,7.071,2.929c2.559,0,5.119-0.976,7.071-2.929
	c26.401-26.401,26.401-69.358,0-95.759c-3.905-3.905-10.237-3.905-14.142,0s-3.905,10.237,0,14.142
	c18.603,18.603,18.603,48.873,0,67.475C285.83,118.351,285.83,124.683,289.736,128.587z"/>
<path d="M208.118,128.587c1.953,1.953,4.512,2.929,7.071,2.929s5.119-0.976,7.071-2.929c3.905-3.905,3.905-10.237,0-14.142
	c-18.603-18.603-18.603-48.873,0-67.475c3.905-3.905,3.905-10.237,0-14.142c-3.905-3.906-10.237-3.905-14.142,0
	C181.718,59.229,181.718,102.187,208.118,128.587z"/>
<path d="M345.994,80.707c0,24.039-9.362,46.639-26.36,63.637c-3.905,3.905-3.905,10.237,0,14.142
	c1.953,1.952,4.512,2.929,7.071,2.929c2.559,0,5.119-0.977,7.071-2.929c20.775-20.776,32.217-48.398,32.217-77.779
	S354.551,23.706,333.775,2.93c-3.905-3.905-10.237-3.905-14.141,0s-3.905,10.237,0,14.141
	C336.633,34.069,345.994,56.669,345.994,80.707z"/>
<path d="M185.29,161.415c2.559,0,5.119-0.977,7.071-2.929c3.905-3.905,3.905-10.237,0-14.142
	c-16.998-16.998-26.36-39.598-26.36-63.637s9.362-46.639,26.359-63.636c3.905-3.905,3.906-10.237,0-14.141
	c-3.906-3.906-10.237-3.904-14.141,0C157.442,23.704,146,51.327,146,80.707s11.442,57.003,32.217,77.779
	C180.172,160.439,182.731,161.415,185.29,161.415z"/>
<path d="M344.574,408.803c-2.63,0-5.21-1.06-7.07-2.93c-1.87-1.859-2.93-4.43-2.93-7.07c0-2.63,1.06-5.21,2.93-7.069
	c1.86-1.86,4.43-2.931,7.07-2.931c2.63,0,5.21,1.07,7.07,2.931c1.86,1.859,2.93,4.439,2.93,7.069c0,2.641-1.07,5.211-2.93,7.07
	C349.774,407.744,347.204,408.803,344.574,408.803z"/>
<g>
</g>
<g>
</g>
<g>
</g>
<g>
</g>
<g>
</g>
<g>
</g>
<g>
</g>
<g>
</g>
<g>
</g>
<g>
</g>
<g>
</g>
<g>
</g>
<g>
</g>
<g>
</g>
<g>
</g>
</svg>
