<?xml version="1.0" encoding="utf-8"?>
<!-- Generator: Adobe Illustrator 19.2.0, SVG Export Plug-In . SVG Version: 6.00 Build 0)  -->
<svg version="1.1" xmlns="http://www.w3.org/2000/svg" xmlns:xlink="http://www.w3.org/1999/xlink" x="0px" y="0px" width="60" height="80"
	 viewBox="0 0 495.6 495.6" style="enable-background:new 0 0 495.6 495.6;" xml:space="preserve">
<style type="text/css">
	.st0{fill:#F9C1AC;}
	.st1{fill:#0987C6;}
	.st2{fill:#0A6CC4;}
	.st3{fill:#3D3C39;}
	.st4{fill:#1C1B1A;}
	.st5{fill:#113E49;}
	.st6{fill:#C19A6B;}
	.st7{fill:#C90D59;}
	.st8{fill:#EA1F5E;}
	.st9{fill:#F8E5B5;}
	.st10{fill:#D5A150;}
	.st11{fill:#6B6161;}
	.st12{fill:#F5F5F5;}
	.st13{fill:#FF4B55;}
	.st14{fill:#2E3033;}
</style>
<g id="Layer_1">
	<path class="st0" d="M321.7,202c0-2.4-0.1-4.8-0.4-7.4c-5.3-44.7-54.5-109.2-105-103.2c-50.5,6-83.1,80.3-77.8,125
		c0.3,2.5,0.8,4.9,1.3,7.3L321.7,202z"/>
	<g>
		<path class="st1" d="M220.8,236.1c7.1,8,2.6,23.8-10.2,35.1c-12.8,11.3-81.4,60.7-88.5,52.6c-7.1-8.1,49.9-70.4,62.6-81.8
			C197.5,230.7,213.6,228,220.8,236.1z"/>
		<path class="st1" d="M236.5,236.1c-7.2,8-2.6,23.8,10.1,35.1c12.8,11.3,81.4,60.7,88.5,52.6c7.1-8.1-49.9-70.4-62.6-81.8
			C259.8,230.7,243.6,228,236.5,236.1z"/>
	</g>
	<g>
		<path class="st2" d="M211.6,348.9c0,13.9-11.3,89-25.2,89c-13.9,0-25.2-75-25.2-89c0-13.9,11.3-25.2,25.2-25.2
			C200.3,323.7,211.6,335,211.6,348.9z"/>
		<path class="st2" d="M296.1,348.9c0,13.9-11.3,89-25.2,89c-13.9,0-25.2-75-25.2-89c0-13.9,11.3-25.2,25.2-25.2
			C284.8,323.7,296.1,335,296.1,348.9z"/>
	</g>
	<path class="st1" d="M299.7,318.5c0,86.2-31.8,57.5-71.1,57.5s-71.1,28.7-71.1-57.5c0-49.3,31.8-89.2,71.1-89.2
		C267.9,229.3,299.7,269.2,299.7,318.5z"/>
	<path class="st0" d="M142,237.3c12.7,27.9,46.6,41.9,86.6,41.9c40,0,73.9-14.1,86.6-41.9H142L142,237.3z"/>
	<path class="st3" d="M214.8,438.4c0,10.7-12.7,12.1-28.4,12.1c-15.6,0-28.3-1.4-28.3-12.1c0-10.7,12.7-25.3,28.3-25.3
		C202,413,214.8,427.7,214.8,438.4z"/>
	<path class="st4" d="M214.8,438.4c0,10.7-12.7,12.1-28.4,12.1c-15.6,0-28.3-1.4-28.3-12.1"/>
	<path class="st3" d="M299.2,438.4c0,10.7-12.7,12.1-28.4,12.1c-15.7,0-28.4-1.4-28.4-12.1c0-10.7,12.7-25.3,28.4-25.3
		C286.5,413,299.2,427.7,299.2,438.4z"/>
	<path class="st4" d="M299.2,438.4c0,10.7-12.7,12.1-28.4,12.1c-15.7,0-28.4-1.4-28.4-12.1"/>
	<ellipse transform="matrix(0.993 -0.1184 0.1184 0.993 -21.3918 23.1493)" class="st5" cx="184.2" cy="191.7" rx="8.2" ry="8.2"/>
	<path d="M192.3,190.7c0.5,4.5-2.7,8.6-7.2,9.2c-4.5,0.5-8.6-2.7-9.1-7.2"/>
	<ellipse transform="matrix(0.993 -0.1184 0.1184 0.993 -19.554 33.3659)" class="st5" cx="271.1" cy="181.3" rx="8.2" ry="8.2"/>
	<path d="M262.9,182.3c0.5,4.5,4.6,7.7,9.2,7.2c4.5-0.5,7.7-4.6,7.2-9.2"/>
	<ellipse cx="228.6" cy="236.4" rx="86.8" ry="10.6"/>
	<ellipse transform="matrix(0.993 -0.1184 0.1184 0.993 -23.5286 28.7821)" cx="230.5" cy="212.5" rx="91.1" ry="4"/>
	<path d="M168.7,121.2l20.9-6.7l1.5,12.6l11.2-12.7l17.6,11.3l-1.9-16l14.5,8.9l0-12l20.2,15.3l-11-20.6l24,5.6l-1.9-1.7
		c-14.7-10-31.1-15.6-47.6-13.6C197.7,93.7,181.5,105.3,168.7,121.2z"/>
	<g>
		<circle class="st4" cx="228.6" cy="294.9" r="3.5"/>
		<circle class="st4" cx="228.6" cy="320.2" r="3.5"/>
		<circle class="st4" cx="228.6" cy="345.5" r="3.5"/>
	</g>
</g>
<g id="Layer_2">
	<path class="st6" d="M184.1,106.7c1.4,2,1,4.8-1,6.3l0,0c-2,1.5-4.8,1-6.3-1l-70.9-98.5c-1.5-2-1-4.8,1-6.3l0,0c2-1.4,4.8-1,6.3,1
		L184.1,106.7z"/>
	<path class="st7" d="M213.1,100.3C202.6,86.8,183.3,84,169.4,94c-14,10-17.3,29.2-8,43.4L213.1,100.3z"/>
	<path class="st8" d="M169.4,94c-14,10-17.3,29.2-8,43.4"/>
	<g>
		<path class="st7" d="M214.9,99.2c0.8,1.1,0.5,2.5-0.5,3.3l-51.2,36.8c-1.1,0.8-2.5,0.5-3.3-0.5l0,0c-0.8-1.1-0.5-2.5,0.5-3.3
			l51.2-36.8C212.7,97.9,214.1,98.1,214.9,99.2L214.9,99.2z"/>
		<path class="st7" d="M179.3,85c1.4,2,1,4.7-1,6.1l-14.5,10.4c-2,1.4-4.7,1-6.1-1l-2.1-3c-1.4-2-1-4.7,1-6.1l14.5-10.4
			c2-1.4,4.7-1,6.1,1L179.3,85z"/>
	</g>
	<path class="st8" d="M157.8,100.6l-2.1-3c-1.4-2-1-4.7,1-6.1l14.5-10.4"/>
	<path class="st9" d="M116,302.6c0.5-2.1,0.2-3.8-0.8-4.8c-2.9-2.9-11.1,0.6-18.3,7.9c-7.2,7.2-10.7,15.4-7.9,18.3
		c1,1,2.7,1.2,4.8,0.8c4.4,5.6,8.7,11,12.9,16.3c1.3,1.6,3.6,2,5.4,0.9c8.6-5.2,15.8-12.5,21.1-21.1c1.1-1.8,0.7-4.1-0.9-5.4
		C127,311.4,121.6,307.1,116,302.6z"/>
	<path class="st10" d="M125.3,334.1c-3.6,3.6-7.7,6.9-12.1,9.5c-2.6,1.6-6,1-7.8-1.3c-4.4-5.6-8.4-10.7-12.2-15.5
		c-2.8,0.3-4.4-0.6-5.3-1.5c-2-2-2.1-5.4-0.3-9.6c1.6-3.7,4.5-7.7,8.1-11.4c3.7-3.7,7.7-6.5,11.4-8.1c4.2-1.8,7.6-1.7,9.6,0.3
		c0.9,0.9,1.8,2.5,1.5,5.3c4.8,3.8,9.9,7.8,15.5,12.2c2.3,1.8,2.9,5.2,1.3,7.8C132.1,326.4,128.9,330.4,125.3,334.1z M98.2,307
		c-3.3,3.3-5.9,7-7.3,10.2c-1.1,2.6-1.3,4.7-0.5,5.5c0.5,0.5,1.6,0.6,3.1,0.3c0.7-0.2,1.4,0.1,1.9,0.7c4,5.1,8.2,10.4,12.9,16.3
		c0.7,0.9,2,1.1,3,0.4c8.3-5.1,15.4-12.1,20.4-20.4c0.6-1,0.4-2.3-0.4-3c-5.9-4.7-11.3-8.9-16.3-12.9c-0.6-0.4-0.8-1.2-0.7-1.9
		c0.3-1.4,0.2-2.6-0.3-3.1c-0.8-0.8-2.9-0.6-5.5,0.5C105.2,301.1,101.5,303.7,98.2,307z"/>
	<path d="M115.4,303.4c-0.3-0.2-0.4-0.6-0.3-0.9c0.4-1.8,0.2-3.2-0.5-3.9c-1.6-1.6-5.1-0.3-6.5,0.3c-3.4,1.4-7.1,4.1-10.5,7.5
		c-3.4,3.4-6.1,7.1-7.5,10.5c-0.6,1.4-1.9,5-0.3,6.5c0.4,0.4,0.9,0.4,1.3,0s0.4-0.9,0-1.3c-0.3-0.3-0.4-1.8,0.7-4.5
		c1.3-3.1,3.9-6.7,7.1-9.9s6.8-5.8,9.9-7.1c2.7-1.2,4.2-1,4.5-0.7c0.1,0.1,0.4,0.8,0,2.2c-0.2,1,0.2,2.1,1,2.8
		c5.1,4,10.4,8.2,16.3,12.9c0.5,0.4,0.6,1.2,0.2,1.8c-2.5,4.1-5.5,7.9-8.9,11.3c-3.4,3.4-7.2,6.4-11.3,8.9c-0.6,0.4-1.4,0.3-1.8-0.2
		c-0.3-0.4-0.9-0.5-1.3-0.2c-0.4,0.3-0.5,0.9-0.2,1.3c1,1.2,2.8,1.5,4.2,0.7c4.2-2.6,8.1-5.6,11.6-9.1s6.6-7.4,9.1-11.6
		c0.9-1.4,0.6-3.2-0.7-4.2C125.8,311.6,120.5,307.4,115.4,303.4z"/>
	<ellipse transform="matrix(0.7071 -0.7071 0.7071 0.7071 -196.8948 160.5133)" cx="95.3" cy="317.9" rx="0.9" ry="0.9"/>
	<ellipse transform="matrix(0.7071 -0.7071 0.7071 0.7071 -193.1045 166.1731)" cx="104" cy="316.2" rx="0.9" ry="0.9"/>
	<ellipse transform="matrix(0.7071 -0.7071 0.7071 0.7071 -197.9793 163.1315)" cx="97.9" cy="320.5" rx="0.9" ry="0.9"/>
	<ellipse transform="matrix(0.7071 -0.7071 0.7071 0.7071 -200.8712 170.1132)" cx="104.9" cy="327.5" rx="0.9" ry="0.9"/>
	<ellipse transform="matrix(0.7071 -0.7071 0.7071 0.7071 -196.1461 171.0479)" cx="108.4" cy="322.3" rx="0.9" ry="0.9"/>
	<ellipse transform="matrix(0.7071 -0.7071 0.7071 0.7071 -199.3375 173.8158)" cx="110.1" cy="327.5" rx="0.9" ry="0.9"/>
	<ellipse transform="matrix(0.7071 -0.7071 0.7071 0.7071 -203.7011 172.0084)" cx="105.8" cy="331.9" rx="0.9" ry="0.9"/>
	<ellipse transform="matrix(0.7071 -0.7071 0.7071 0.7071 -193.3162 169.1528)" cx="107.5" cy="317.9" rx="0.9" ry="0.9"/>
	<ellipse transform="matrix(0.7071 -0.7071 0.7071 0.7071 -184.7388 170.6608)" cx="113.6" cy="308.3" rx="0.9" ry="0.9"/>
	<ellipse transform="matrix(0.7071 -0.7071 0.7071 0.7071 -187.9922 178.5152)" cx="121.5" cy="316.2" rx="0.9" ry="0.9"/>
</g>
<g id="Layer_3">
	<g>
		<g>
			<path class="st11" d="M245.1,449.6v-2h6.9v3.4c0,1.9,1.5,3.4,3.4,3.4h17.8c5.7,0,10.3-4.6,10.3-10.3s-4.6-10.3-10.3-10.3h-14.4
				v-28.4c0-12.4-7.9-23.1-18.9-27.2v-24.7h5c7.3,0,13.2-5.9,13.2-13.2c0-3.5,2.8-6.3,6.3-6.3h1.4c1.4,4,5.2,6.8,9.7,6.8h32
				c5.7,0,22.9-4.9,22.9-10.5c0-5.7-17.3-10.6-22.9-10.6l-32,0.6c-4.5,0-8.3,2.9-9.7,6.8h-1.4c-7.3,0-13.2,5.9-13.2,13.2
				c0,3.5-2.8,6.3-6.3,6.3h-4.6c0.7-1.5,1-3.1,1-4.8c0-6.4-5.2-11.6-11.6-11.6c-6.4,0-11.6,5.2-11.6,11.6c0,1.7,0.4,3.3,1,4.8h-4.6
				c-3.5,0-6.3-2.8-6.3-6.3c0-7.3-5.9-13.2-13.2-13.2h-1.4c-1.4-4-5.2-6.8-9.7-6.8l-30.6-0.1c-5.7,0-24.4,3.9-24.4,9.5
				c0,5.7,18.7,9.3,24.4,9.3l30.6,1.8c4.5,0,8.3-2.9,9.7-6.8h1.4c3.5,0,6.3,2.8,6.3,6.3c0,7.3,5.9,13.2,13.2,13.2h5v24.7
				c-3.8,1.4-7.3,3.7-10.2,6.6c-5.5,5.5-8.5,12.8-8.5,20.6c0,1.9,1.5,3.4,3.4,3.4c0,0,0,0,0,0c1.9,0,3.4-1.5,3.4-3.4
				c0-5.9,2.3-11.5,6.5-15.7c4.2-4.2,9.8-6.5,15.7-6.5c12.3,0,22.2,10,22.2,22.2v35.2h-6.9v-32.9c0-8.5-6.9-15.4-15.4-15.4
				c-8.5,0-15.4,6.9-15.4,15.4v32.9h-6.7V431c0-1.9-1.5-3.4-3.4-3.4c-1.9,0-3.4,1.5-3.4,3.4v2.9h-14.5c-5.7,0-10.3,4.6-10.3,10.3
				s4.6,10.3,10.3,10.3h17.9c1.9,0,3.4-1.5,3.4-3.4v-3.4h6.7v32.6c0,8.5,6.9,15.4,15.4,15.4c8.5,0,15.4-6.9,15.4-15.4v-5.7
				 M258.9,447.6v-6.8"/>
		</g>
	</g>
	<g>
		<path class="st12" d="M442.5,360.1l-86.3-74.2c-0.9-0.7-1-2-0.2-2.9l47.7-55.5c0.7-0.9,2-1,2.9-0.2l86.4,74.2c0.9,0.7,1,2,0.2,2.9
			l-47.7,55.5C444.6,360.7,443.3,360.8,442.5,360.1z"/>
		
			<rect x="385.8" y="261.1" transform="matrix(0.6516 -0.7586 0.7586 0.6516 -74.8806 424.2755)" class="st12" width="77.3" height="65.1"/>
	</g>
	<g>
		<path class="st13" d="M406.4,227.3c-0.8-0.7-2.1-0.6-2.8,0.2L355.9,283c-0.7,0.8-0.6,2.1,0.2,2.8l18.5,15.9l50.4-58.6L406.4,227.3
			L406.4,227.3z"/>
		<path class="st13" d="M492.9,301.5l-18.5-15.9L424,344.2l18.5,15.9c0.8,0.7,2.1,0.6,2.8-0.2l47.7-55.5
			C493.8,303.5,493.7,302.2,492.9,301.5z"/>
		<path class="st13" d="M428,308.5l13.7,2.6l-1.2-2.9c-0.3-0.8-0.1-1.7,0.5-2.3l5.1-4.5l-4.8-2.2c-1.1-0.5-1.5-1.8-1-2.8l1.1-2
			l-7.3,1.1c-1,0.1-1.6-1.1-0.8-1.8l9.3-7.7l-3-1.4c-0.9-0.4-1.3-1.4-1.1-2.3l1.5-6.8l0,0l0,0l0,0l0,0l-6.5,2.6
			c-0.9,0.3-1.9,0-2.4-0.8l-1.8-2.7L423,285c-0.5,0.9-1.9,0.5-1.9-0.5l0-7.4l-1.8,1.4c-0.9,0.7-2.3,0.5-2.9-0.5l-2.9-4.5l-3.7,5.7
			c-0.5,0.7-1.3,1.1-2.2,0.9l-3-0.8l4.7,13.1c0.5,1.4-0.1,2.9-1.4,3.6l-2.6,1.4l8.4,6.1c0.5,0.3,0.5,1,0.2,1.4l-7.5,8.2l1.5,1.3
			l7-8.6c0.4-0.5,1-0.5,1.4-0.1l7.3,7.4l1-2.8C425.2,309,426.6,308.2,428,308.5z"/>
	</g>
	<path class="st14" d="M324.8,317.1L324.8,317.1c-2.7-2.4-3.5-5.9-1.7-8l72.4-84.3c1.8-2.1,5.4-1.8,8.1,0.5l0,0
		c2.7,2.4,3.5,5.9,1.7,8L333,317.6C331.2,319.7,327.6,319.5,324.8,317.1z"/>
</g>
</svg>
