<?xml version="1.0" encoding="iso-8859-1"?>
<!-- Generator: Adobe Illustrator 19.0.0, SVG Export Plug-In . SVG Version: 6.00 Build 0)  -->
<svg version="1.1" id="Capa_1" xmlns="http://www.w3.org/2000/svg" xmlns:xlink="http://www.w3.org/1999/xlink" x="0px" y="0px"
	 viewBox="0 0 512 512" style="enable-background:new 0 0 512 512;" xml:space="preserve">
<path style="fill:#E1B872;" d="M330.64,114.345C345.119,105.116,353.5,94.2,353.5,82.5c0-33.137-67.157-60-150-60
	s-150,26.863-150,60c0,11.7,8.381,22.616,22.86,31.845c-6.612,57.074-13.157,113.029-19.575,167.604
	c-1.942,16.516,9.162,31.896,26.051,36.027c79.155,19.364,162.174,19.364,241.329,0c16.889-4.131,27.993-19.511,26.051-36.027
	C343.797,227.374,337.252,171.419,330.64,114.345z"/>
<path style="fill:#AD712C;" d="M203.5,347.458c-41.802,0.002-83.588-4.969-124.229-14.911c-24.127-5.901-40.199-28.407-37.384-52.35
	c6.739-57.304,12.82-109.346,18.55-158.756C42.533,107.358,38.5,92.772,38.5,82.5c0-22.575,18.951-42.589,53.363-56.354
	C121.924,14.122,161.571,7.5,203.5,7.5s81.576,6.622,111.637,18.646C349.549,39.911,368.5,59.925,368.5,82.5
	c0,10.272-4.033,24.858-21.937,38.941c5.73,49.41,11.811,101.452,18.55,158.756c2.815,23.942-13.256,46.448-37.384,52.35
	C287.098,342.486,245.292,347.457,203.5,347.458z M203.5,37.5c-38.204,0-73.894,5.86-100.495,16.501
	C82.044,62.385,68.5,73.572,68.5,82.5c0,5.749,5.804,12.746,15.923,19.197c4.843,3.088,7.498,8.669,6.837,14.375
	c-6.031,52.055-12.435,106.887-19.578,167.629c-1.05,8.925,5.277,17.396,14.717,19.705c76.609,18.741,157.594,18.739,234.201,0
	c9.44-2.31,15.768-10.78,14.718-19.705c-7.143-60.742-13.547-115.574-19.578-167.629c-0.661-5.706,1.994-11.287,6.837-14.375
	C332.696,95.246,338.5,88.249,338.5,82.5c0-8.928-13.544-20.115-34.505-28.499C277.394,43.36,241.704,37.5,203.5,37.5z"/>
<path style="fill:#F8E5B5;" d="M435.64,271.387c14.479-9.229,22.86-20.145,22.86-31.845c0-33.137-67.157-60-150-60
	s-150,26.863-150,60c0,11.7,8.381,22.616,22.86,31.845c-6.612,57.074-13.157,113.029-19.575,167.604
	c-1.942,16.516,9.162,31.896,26.051,36.027c79.155,19.364,162.174,19.364,241.329,0c16.889-4.131,27.993-19.511,26.051-36.027
	C448.797,384.416,442.252,328.461,435.64,271.387z"/>
<path style="fill:#D5A150;" d="M308.5,504.5c-41.802,0.002-83.588-4.969-124.229-14.911c-24.127-5.901-40.199-28.407-37.384-52.35
	c6.739-57.304,12.82-109.346,18.55-158.756C147.533,264.4,143.5,249.814,143.5,239.542c0-22.575,18.951-42.589,53.363-56.354
	c30.061-12.024,69.708-18.646,111.637-18.646s81.576,6.622,111.637,18.646c34.412,13.765,53.363,33.778,53.363,56.354
	c0,10.272-4.033,24.858-21.937,38.941c5.73,49.41,11.811,101.452,18.55,158.756c2.815,23.942-13.256,46.448-37.384,52.35
	C392.098,499.528,350.292,504.499,308.5,504.5z M308.5,194.542c-38.204,0-73.894,5.86-100.495,16.501
	c-20.961,8.384-34.505,19.571-34.505,28.499c0,5.749,5.804,12.746,15.923,19.197c4.843,3.088,7.498,8.669,6.837,14.375
	c-6.031,52.055-12.435,106.887-19.578,167.629c-1.05,8.925,5.277,17.396,14.717,19.705c76.609,18.741,157.594,18.739,234.201,0
	c9.44-2.31,15.768-10.78,14.718-19.705c-7.143-60.742-13.547-115.574-19.578-167.629c-0.661-5.706,1.994-11.287,6.837-14.375
	c10.12-6.451,15.923-13.448,15.923-19.197c0-8.928-13.544-20.115-34.505-28.499C382.394,200.402,346.704,194.542,308.5,194.542z"/>

<circle cx="119.45" cy="80.3" r="7.5"/>
<circle cx="179.45" cy="120.3" r="7.5"/>
<circle cx="119.45" cy="110.3" r="7.5"/>
<circle cx="119.45" cy="190.3" r="7.5"/>
<circle cx="99.45" cy="220.3" r="7.5"/>
<circle cx="189.45" cy="150.3" r="7.5"/>
<circle cx="279.45" cy="130.3" r="7.5"/>
<circle cx="279.45" cy="80.3" r="7.5"/>
<circle cx="209.45" cy="80.3" r="7.5"/>
<circle cx="240.45" cy="120.3" r="7.5"/>
<circle cx="119.45" cy="270.3" r="7.5"/>

<path d="M133.949,304.616c-0.144-0.02-14.394-1.992-19.037-2.758c-9.264-1.526-18.655-3.762-26.731-5.737
	c-5.768-1.411-9.659-6.374-9.051-11.544c7.158-60.873,13.563-115.709,19.58-167.642c0.984-8.498-3.041-16.962-10.255-21.563
	C78.237,88.859,76,83.872,76,82.5c0-3.014,7.501-12.62,29.791-21.535C131.527,50.67,166.228,45,203.5,45s71.973,5.67,97.71,15.965
	C323.499,69.88,331,79.486,331,82.5c0,1.372-2.237,6.359-12.457,12.874c-7.214,4.601-11.239,13.064-10.253,21.561l2.52,21.731
	c0.479,4.114,4.207,7.069,8.315,6.585c4.114-0.478,7.063-4.2,6.585-8.315l-2.52-21.728c-0.329-2.832,1.013-5.653,3.417-7.187
	C339.294,99.935,346,91.109,346,82.5c0-17.849-27.428-30.746-39.22-35.463C279.313,36.051,242.635,30,203.5,30
	s-75.813,6.051-103.28,17.037C88.427,51.754,61,64.651,61,82.5c0,8.609,6.706,17.435,19.391,25.521
	c2.405,1.533,3.747,4.354,3.419,7.188c-6.016,51.924-12.419,106.752-19.577,167.616c-1.491,12.679,7.272,24.658,20.384,27.866
	c8.346,2.042,18.069,4.354,27.856,5.968c4.833,0.797,18.827,2.733,19.42,2.816c0.349,0.048,0.695,0.071,1.037,0.071
	c3.686,0,6.9-2.719,7.42-6.474C140.918,308.971,138.052,305.185,133.949,304.616z"/>
<path d="M459.482,281.67C477.163,266.357,481,250.451,481,239.542c0-25.85-20.626-48.337-58.078-63.317
	c-18.493-7.397-40.46-12.805-64.297-15.959c-1.403-12.049-2.784-23.926-4.143-35.638C372.163,109.315,376,93.409,376,82.5
	c0-25.85-20.626-48.337-58.078-63.317C286.997,6.813,246.361,0,203.5,0S120.003,6.813,89.078,19.183C51.626,34.163,31,56.65,31,82.5
	c0,10.91,3.837,26.815,21.517,42.128c-5.615,48.4-11.535,99.053-18.079,154.693c-3.257,27.697,15.251,53.711,43.05,60.511
	c10.962,2.682,22.169,5.04,33.308,7.011c12.686,2.244,25.605,4.035,38.509,5.354c-3.147,26.941-6.42,54.857-9.867,84.167
	c-3.257,27.697,15.251,53.711,43.05,60.511C223.516,506.911,265.903,512,308.476,512c0.008,0,0.017,0,0.024,0
	c42.59-0.001,84.985-5.09,126.011-15.126c27.799-6.799,46.307-32.813,43.051-60.511C471.072,381.187,465.152,330.533,459.482,281.67
	z M113.41,332.071c-10.822-1.913-21.708-4.204-32.357-6.81c-20.456-5.003-34.091-24-31.717-44.188
	c6.727-57.202,12.795-109.135,18.551-158.768c0.3-2.589-0.765-5.148-2.813-6.759C52.596,105.731,46,94.304,46,82.5
	c0-19.301,17.277-36.842,48.649-49.39C123.844,21.432,162.502,15,203.5,15s79.655,6.432,108.852,18.11
	C343.723,45.658,361,63.199,361,82.5c0,11.804-6.596,23.231-19.074,33.047c-2.049,1.611-3.113,4.17-2.813,6.759
	c1.383,11.921,2.787,24.005,4.215,36.27c-11.335-1.012-22.996-1.534-34.827-1.534c-42.861,0-83.497,6.813-114.422,19.183
	c-6.927,2.771-13.273,5.799-19.025,9.057c1.179-1.325,1.901-3.065,1.901-4.978c0-4.142-3.358-7.5-7.5-7.5s-7.5,3.358-7.5,7.5
	c0,4.143,3.358,7.5,7.5,7.5c0.571,0,1.126-0.069,1.66-0.19C148.294,201.652,136,219.594,136,239.542
	c0,10.91,3.837,26.815,21.517,42.128c-2.109,18.176-4.26,36.67-6.472,55.626C138.434,336.013,125.807,334.265,113.41,332.071z
	 M430.946,482.304C391.087,492.055,349.89,496.999,308.5,497c-0.011,0-0.015,0-0.024,0c-41.37,0-82.563-4.945-122.423-14.696
	c-20.456-5.003-34.091-24-31.717-44.188c6.727-57.202,12.795-109.135,18.551-158.768l0.483-4.166l-3.296-2.593
	C157.596,262.773,151,251.346,151,239.542c0-19.301,17.277-36.842,48.649-49.39c29.195-11.679,67.853-18.11,108.851-18.11
	c13.629,0,26.988,0.726,39.838,2.104c1.315,0.719,2.854,1.055,4.455,0.866c0.39-0.045,0.766-0.129,1.134-0.23
	c23.64,2.927,45.348,8.141,63.425,15.371C448.723,202.7,466,220.241,466,239.542c0,11.804-6.596,23.231-19.074,33.047l-3.297,2.593
	l0.483,4.166c5.813,50.124,11.882,102.057,18.553,158.768C465.038,458.304,451.402,477.301,430.946,482.304z"/>
<path d="M428.19,272.25c-0.329-2.832,1.013-5.653,3.417-7.187C444.294,256.977,451,248.151,451,239.542
	c0-17.849-27.428-30.746-39.22-35.463c-27.467-10.986-64.146-17.037-103.28-17.037s-75.813,6.051-103.28,17.037
	c-11.792,4.717-39.22,17.614-39.22,35.463c0,4.143,3.358,7.5,7.5,7.5s7.5-3.357,7.5-7.5c0-3.014,7.501-12.62,29.791-21.535
	c25.737-10.295,60.438-15.965,97.709-15.965s71.973,5.67,97.71,15.965c22.289,8.915,29.79,18.521,29.79,21.535
	c0,1.372-2.237,6.359-12.457,12.874c-7.214,4.601-11.239,13.064-10.253,21.562c6.017,51.934,12.421,106.77,19.579,167.641
	c0.608,5.171-3.283,10.134-9.052,11.545c-37.727,9.229-76.517,13.843-115.32,13.841c-38.794-0.001-77.601-4.614-115.315-13.841
	c-5.768-1.411-9.659-6.374-9.051-11.544c0.484-4.113-2.459-7.841-6.573-8.324c-4.112-0.483-7.841,2.458-8.325,6.572
	c-1.491,12.679,7.272,24.658,20.384,27.866c38.885,9.513,78.882,14.27,118.88,14.27s79.996-4.757,118.885-14.27
	c13.111-3.207,21.875-15.187,20.385-27.866C440.609,379.004,434.206,324.177,428.19,272.25z"/>
<circle cx="229.45" cy="240.3" r="7.5"/>
<circle cx="289.45" cy="280.3" r="7.5"/>
<circle cx="229.45" cy="270.3" r="7.5"/>
<circle cx="229.45" cy="350.3" r="7.5"/>
<circle cx="279.45" cy="340.3" r="7.5"/>
<circle cx="259.45" cy="380.3" r="7.5"/>
<circle cx="209.45" cy="380.3" r="7.5"/>
<circle cx="299.45" cy="310.3" r="7.5"/>
<circle cx="389.45" cy="290.3" r="7.5"/>
<circle cx="389.45" cy="380.3" r="7.5"/>
<circle cx="349.45" cy="410.3" r="7.5"/>
<circle cx="389.45" cy="420.3" r="7.5"/>
<circle cx="389.45" cy="240.3" r="7.5"/>
<circle cx="419.45" cy="400.3" r="7.5"/>
<circle cx="339.45" cy="450.3" r="7.5"/>
<circle cx="229.45" cy="430.3" r="7.5"/>

<g>
</g>
<g>
</g>
<g>
</g>
<g>
</g>
<g>
</g>
<g>
</g>
<g>
</g>
<g>
</g>
<g>
</g>
<g>
</g>
<g>
</g>
<g>
</g>
<g>
</g>
<g>
</g>
<g>
</g>
</svg>
