<?xml version="1.0" encoding="iso-8859-1"?>
<!-- Generator: Adobe Illustrator 19.0.0, SVG Export Plug-In . SVG Version: 6.00 Build 0)  -->
<svg version="1.1" id="Capa_1" xmlns="http://www.w3.org/2000/svg" xmlns:xlink="http://www.w3.org/1999/xlink" x="0px" y="0px"
	 viewBox="0 0 511.997 511.997" style="enable-background:new 0 0 511.997 511.997;" xml:space="preserve">
<path style="fill:#F9E8D4;" d="M146.782,48.417c-11.157,8.201-21.607,17.608-29.446,29.024
	c-7.382,10.749-12.262,22.994-16.699,35.256c-10.212,28.223-18.437,59.065-10.234,87.935c5.44,19.145,17.599,35.518,27.897,52.55
	s19.134,36.381,16.736,56.139c-1.631,13.443,1.019,65.904,102.136,91.601c50.053,12.719,104.071,15.006,151.561-5.287
	c47.489-20.293,86.717-60.626,102.636-109.754c4.072-12.565,6.664-25.753,6.017-38.945c-0.583-11.886-3.824-23.634-9.418-34.138
	c-6.203-11.648-15.503-22.586-15.883-35.778c-0.185-6.43,1.826-12.687,3.12-18.988c6.789-33.051-6.856-68.054-29.859-92.737
	c-23.004-24.685-53.294-44.102-86.405-50.597C274.256-1.915,198.034,10.744,146.782,48.417z"/>
<circle style="fill:#FEC007;" cx="340.031" cy="208.721" r="83.256"/>
<path style="fill:#F9E8D4;" d="M491.364,285.883c-15.912,49.122-55.144,89.458-102.636,109.753
	c-11.938,5.106-24.288,8.776-36.89,11.216c-37.505,7.263-77.197,3.583-114.662-5.936c-101.123-25.693-103.769-78.153-102.138-91.596
	c2.392-19.758-6.443-39.106-16.741-56.14c-10.289-17.034-22.452-33.405-27.89-52.548c-4.979-17.522-3.915-35.777-0.01-53.719
	c2.519-11.626,6.228-23.126,10.24-34.215c4.442-12.26,9.323-24.512,16.702-35.259c7.839-11.411,18.284-20.822,29.442-29.022
	c51.249-37.671,127.48-50.333,212.164-33.717c33.102,6.492,63.393,25.908,86.402,50.596c22.999,24.688,36.646,59.684,29.862,92.737
	c-1.298,6.297-3.309,12.553-3.124,18.987c0.381,13.188,9.684,24.131,15.882,35.777c5.594,10.503,8.835,22.257,9.421,34.137
	C498.032,260.131,495.445,273.32,491.364,285.883z"/>
<g>
	<path style="fill:#EFCDB1;" d="M351.838,406.852c-37.505,7.263-77.197,3.583-114.662-5.936
		c-101.123-25.693-103.769-78.153-102.138-91.596c2.392-19.758-6.443-39.106-16.741-56.14
		c-10.289-17.034-22.452-33.405-27.89-52.548c-4.979-17.522-3.915-35.777-0.01-53.719l8.923,3.641
		c8.747,3.563,17.151,9.225,24.297,16.38c7.146,7.146,12.807,15.541,16.37,24.288c2.109,5.164,5.555,10.23,9.967,14.652
		c4.413,4.403,9.479,7.849,14.642,9.958c8.747,3.563,17.151,9.225,24.297,16.38c7.146,7.146,12.807,15.541,16.37,24.288
		c2.109,5.164,5.555,10.23,9.967,14.642c4.412,4.413,9.479,7.859,14.642,9.967c8.747,3.563,17.151,9.225,24.297,16.38
		c7.146,7.136,12.807,15.541,16.37,24.288c2.109,5.164,5.555,10.23,9.967,14.642c4.422,4.422,9.479,7.859,14.633,9.958
		c8.757,3.573,17.151,9.235,24.307,16.39c7.156,7.146,12.817,15.55,16.37,24.297c2.109,5.155,5.555,10.22,9.967,14.633
		C347.699,403.611,349.729,405.339,351.838,406.852z"/>
	<circle style="fill:#EFCDB1;" cx="340.031" cy="208.721" r="100.625"/>
	<path style="fill:#EFCDB1;" d="M491.364,285.883c-15.912,49.122-55.144,89.458-102.636,109.753
		c-29.189,12.475-60.855,16.419-92.542,14.642c25.752-0.361,51.181-4.871,74.971-15.033
		c47.492-20.295,86.724-60.621,102.636-109.753c4.081-12.563,6.668-25.752,6.023-38.95c-0.586-11.88-3.827-23.634-9.421-34.137
		c-6.199-11.645-15.501-22.579-15.882-35.777c-0.185-6.424,1.826-12.68,3.124-18.987c6.785-33.053-6.863-68.05-29.862-92.737
		c-23.009-24.678-53.299-44.104-86.402-50.596c-18.831-3.69-37.241-5.945-55.047-6.775c23.185-0.107,47.531,2.245,72.618,7.166
		c33.102,6.492,63.393,25.908,86.402,50.596c22.999,24.688,36.646,59.684,29.862,92.737c-1.298,6.297-3.309,12.553-3.124,18.987
		c0.381,13.188,9.684,24.131,15.882,35.777c5.594,10.503,8.835,22.257,9.421,34.137C498.032,260.131,495.445,273.32,491.364,285.883
		z"/>
</g>
<circle style="fill:#FEC007;" cx="340.031" cy="208.721" r="83.256"/>
<circle style="fill:#F9DE69;" cx="327.692" cy="184.282" r="27.876"/>
<path style="fill:#FB4239;" d="M354.897,425.219l-79.282,79.282c-6.705-2.729-13.455-7.171-19.458-13.173
	c-6.01-6.01-10.444-12.753-13.179-19.465c-2.723-6.712-7.164-13.462-13.166-19.465c-6.01-6.01-12.753-10.444-19.471-13.173
	c-6.705-2.729-13.455-7.171-19.458-13.173c-6.01-6.01-10.445-12.753-13.179-19.465c-2.729-6.718-7.164-13.462-13.166-19.465
	c-6.01-6.01-12.753-10.445-19.471-13.173c-6.712-2.736-13.455-7.171-19.458-13.173c-6.01-6.01-10.444-12.753-13.179-19.465
	c-2.729-6.718-7.164-13.462-13.166-19.465c-6.01-6.01-12.753-10.444-19.471-13.173c-6.712-2.736-13.455-7.171-19.458-13.173
	c-6.01-6.01-10.444-12.753-13.179-19.465c-2.729-6.718-7.164-13.462-13.166-19.465c-6.01-6.01-12.753-10.445-19.471-13.173
	l79.282-79.282c6.712,2.736,13.462,7.164,19.471,13.173c6.003,6.003,10.431,12.753,13.166,19.465
	c2.736,6.712,7.164,13.462,13.173,19.471c6.003,6.003,12.753,10.431,19.465,13.166c6.712,2.736,13.462,7.164,19.471,13.173
	c6.003,6.003,10.432,12.753,13.166,19.465c2.736,6.712,7.164,13.462,13.173,19.471c6.003,6.003,12.753,10.431,19.465,13.166
	c6.712,2.736,13.462,7.164,19.471,13.173c6.003,6.003,10.432,12.753,13.166,19.465c2.736,6.712,7.164,13.462,13.173,19.471
	c6.003,6.003,12.76,10.438,19.465,13.166c6.712,2.736,13.462,7.164,19.471,13.173c6.003,6.003,10.437,12.76,13.166,19.465
	c2.736,6.712,7.164,13.462,13.173,19.471C341.434,418.056,348.192,422.49,354.897,425.219z"/>
<path style="fill:#E21717;" d="M340.608,431.872c-5.242-2.132-10.385-5.636-14.872-10.122c-4.494-4.494-7.991-9.631-10.122-14.872
	c-3.523-8.654-9.126-16.972-16.217-24.064c-7.092-7.092-15.417-12.701-24.064-16.217c-5.242-2.132-10.385-5.636-14.872-10.122
	c-4.494-4.494-7.991-9.631-10.123-14.872c-3.523-8.654-9.126-16.972-16.217-24.064c-7.092-7.092-15.417-12.701-24.064-16.217
	c-5.249-2.139-10.385-5.636-14.872-10.122c-4.494-4.494-7.991-9.631-10.122-14.872c-3.523-8.654-9.126-16.972-16.217-24.064
	c-7.092-7.092-15.417-12.701-24.064-16.217c-5.249-2.139-10.385-5.636-14.879-10.13c-4.488-4.488-7.984-9.625-10.123-14.872
	c-3.517-8.647-9.126-16.972-16.211-24.057c-5.649-5.649-12.077-10.358-18.828-13.816l-20.127,20.127l-21.138,21.138l-20.121,20.121
	l5.426,2.211c5.249,2.139,10.385,5.636,14.879,10.13c4.488,4.488,7.984,9.625,10.123,14.872c3.523,8.641,9.133,16.965,16.217,24.051
	c7.092,7.092,15.417,12.701,24.064,16.23c5.242,2.132,10.378,5.629,14.872,10.122c4.488,4.488,7.984,9.625,10.123,14.872
	c3.523,8.641,9.133,16.965,16.224,24.057c7.092,7.092,15.41,12.694,24.057,16.224c5.242,2.132,10.378,5.629,14.872,10.122
	c4.488,4.487,7.984,9.625,10.123,14.872c3.523,8.641,9.133,16.965,16.224,24.057c7.092,7.092,15.41,12.694,24.057,16.224
	c5.242,2.132,10.378,5.629,14.872,10.122c4.488,4.488,7.991,9.631,10.123,14.872c3.523,8.641,9.133,16.965,16.224,24.057
	c5.649,5.649,12.071,10.353,18.822,13.809l20.121-20.121l21.138-21.138l20.121-20.121L340.608,431.872z"/>
<path style="fill:#F9E8D4;" d="M315.258,464.859c-6.71-2.731-13.46-7.166-19.466-13.171c-6.006-6.006-10.44-12.756-13.171-19.466
	c-2.731-6.71-7.166-13.46-13.171-19.466c-6.006-6.006-12.756-10.441-19.466-13.171c-6.71-2.731-13.46-7.166-19.466-13.171
	c-6.006-6.006-10.44-12.756-13.171-19.466s-7.166-13.46-13.171-19.466c-6.006-6.006-12.756-10.44-19.466-13.171
	c-6.71-2.731-13.46-7.166-19.466-13.171c-6.006-6.006-10.44-12.756-13.171-19.466c-2.732-6.71-7.166-13.46-13.171-19.466
	c-6.006-6.006-12.756-10.441-19.466-13.171c-6.71-2.731-13.46-7.166-19.466-13.171c-6.006-6.006-10.44-12.756-13.171-19.466
	c-2.732-6.71-7.166-13.46-13.171-19.466c-6.006-6.006-12.756-10.44-19.466-13.171l20.103-20.103
	c6.71,2.731,13.46,7.166,19.466,13.171c6.006,6.006,10.44,12.756,13.171,19.466c2.731,6.71,7.166,13.46,13.171,19.466
	c6.006,6.006,12.756,10.44,19.466,13.171c6.71,2.731,13.46,7.166,19.466,13.171c6.006,6.006,10.44,12.756,13.171,19.466
	c2.731,6.71,7.166,13.46,13.171,19.466c6.006,6.006,12.756,10.44,19.466,13.171c6.71,2.731,13.46,7.166,19.466,13.171
	c6.006,6.006,10.44,12.756,13.171,19.466c2.732,6.71,7.166,13.46,13.171,19.466c6.006,6.006,12.756,10.44,19.466,13.171
	c6.71,2.731,13.46,7.166,19.466,13.171c6.006,6.006,10.44,12.756,13.171,19.466c2.732,6.71,7.166,13.46,13.171,19.466
	c6.006,6.006,12.756,10.441,19.466,13.171L315.258,464.859z"/>
<path style="fill:#FF8859;" d="M295.137,484.98c-6.71-2.731-13.46-7.166-19.466-13.171c-6.006-6.006-10.44-12.756-13.171-19.466
	c-2.732-6.71-7.166-13.46-13.171-19.466c-6.006-6.006-12.756-10.44-19.466-13.171c-6.71-2.731-13.46-7.166-19.466-13.171
	c-6.006-6.006-10.44-12.756-13.171-19.466c-2.732-6.71-7.166-13.46-13.171-19.466s-12.756-10.44-19.466-13.171
	s-13.46-7.166-19.466-13.171c-6.006-6.006-10.44-12.756-13.171-19.466c-2.731-6.71-7.166-13.46-13.171-19.466
	c-6.006-6.006-12.756-10.44-19.466-13.171c-6.71-2.731-13.46-7.166-19.466-13.171c-6.006-6.006-10.44-12.756-13.171-19.466
	c-2.732-6.71-7.166-13.46-13.171-19.466s-12.756-10.44-19.466-13.171l20.103-20.103c6.71,2.731,13.46,7.166,19.466,13.171
	c6.006,6.006,10.44,12.756,13.171,19.466c2.732,6.71,7.166,13.46,13.171,19.466c6.006,6.006,12.756,10.44,19.466,13.171
	c6.71,2.731,13.46,7.166,19.466,13.171c6.006,6.006,10.44,12.756,13.171,19.466c2.732,6.71,7.166,13.46,13.171,19.466
	c6.006,6.006,12.756,10.441,19.466,13.171c6.71,2.731,13.46,7.166,19.466,13.171c6.006,6.006,10.44,12.756,13.171,19.466
	c2.732,6.71,7.166,13.46,13.171,19.466c6.006,6.006,12.756,10.44,19.466,13.171c6.71,2.731,13.46,7.166,19.466,13.171
	c6.006,6.006,10.44,12.756,13.171,19.466c2.732,6.71,7.166,13.46,13.171,19.466c6.006,6.006,12.756,10.44,19.466,13.171
	L295.137,484.98z"/>
<path d="M103.51,104.612c0.965,0.414,1.967,0.609,2.953,0.609c2.909,0,5.677-1.703,6.896-4.545
	c3.228-7.525,6.551-13.736,10.16-18.991c6.402-9.324,15.464-18.229,27.704-27.227c49.731-36.552,124.913-48.361,206.274-32.402
	c26.412,5.182,52.233,19.216,74.675,40.587c2.998,2.857,7.747,2.742,10.603-0.259c2.857-2.999,2.741-7.746-0.259-10.602
	c-24.512-23.345-52.912-38.713-82.132-44.444c-42.83-8.403-83.624-9.596-121.25-3.543c-37.635,6.053-70.202,19.032-96.793,38.578
	c-13.617,10.009-23.818,20.09-31.185,30.82c-4.172,6.074-7.96,13.129-11.579,21.568C97.942,98.57,99.703,102.979,103.51,104.612z"/>
<path d="M504.877,246.569c-0.631-12.929-4.188-25.825-10.289-37.296c-1.688-3.171-3.563-6.248-5.378-9.224
	c-4.835-7.93-9.401-15.418-9.627-23.253c-0.115-3.889,0.86-8.057,1.894-12.469c0.373-1.594,0.745-3.188,1.076-4.791
	c5.655-27.539-1.635-58.458-20.001-84.831c-2.365-3.399-7.041-4.237-10.439-1.868c-3.399,2.367-4.235,7.041-1.868,10.439
	c16.027,23.016,22.449,49.711,17.617,73.234c-0.302,1.467-0.646,2.932-0.989,4.397c-1.206,5.154-2.454,10.484-2.282,16.324
	c0.341,11.807,6.174,21.373,11.812,30.623c1.78,2.92,3.462,5.678,4.942,8.46c5.07,9.532,8.027,20.245,8.551,30.985
	c0.54,10.966-1.313,22.83-5.664,36.268c-14.858,45.855-51.661,85.171-98.445,105.169c-15.205,6.493-31.853,10.84-49.539,12.945
	c-2.959-3.762-5.373-7.83-7.047-11.933c-3.203-7.873-8.327-15.46-14.809-21.932c-6.482-6.494-14.073-11.618-21.94-14.813
	c-6.043-2.468-11.916-6.457-16.996-11.544c-5.084-5.076-9.068-10.946-11.524-16.987c-3.222-7.889-8.349-15.476-14.815-21.932
	c-6.48-6.491-14.067-11.614-21.931-14.813c-6.055-2.473-11.932-6.461-17.006-11.543c-5.083-5.074-9.066-10.945-11.524-16.988
	c-3.222-7.888-8.348-15.475-14.814-21.932c-6.479-6.489-14.064-11.612-21.94-14.817c-6.018-2.447-11.893-6.437-16.997-11.539
	c-5.082-5.074-9.066-10.944-11.52-16.978c-3.195-7.854-8.321-15.443-14.818-21.942c-6.479-6.489-14.064-11.612-21.939-14.817
	c-0.168-0.068-0.341-0.109-0.512-0.165c1.429-8.963,3.861-18.668,7.421-29.68c1.273-3.94-0.889-8.169-4.83-9.443
	c-3.939-1.269-8.169,0.888-9.443,4.83c-5.518,17.066-8.539,31.386-9.43,44.764L69.015,178.29c-0.039,0.038-0.076,0.076-0.114,0.114
	L48.882,198.42c-0.019,0.019-0.037,0.037-0.056,0.056l-20.083,20.08c-0.007,0.007-0.015,0.014-0.022,0.022L9.207,238.091
	c-1.777,1.777-2.547,4.326-2.049,6.79c0.498,2.463,2.197,4.514,4.524,5.461c6.03,2.453,11.906,6.439,16.993,11.525
	s9.072,10.961,11.525,16.993c1.831,4.498,4.322,8.945,7.402,13.217c2.423,3.362,7.111,4.12,10.469,1.698
	c3.36-2.422,4.12-7.109,1.698-10.469c-2.385-3.309-4.295-6.707-5.677-10.101c-3.201-7.868-8.323-15.456-14.812-21.946
	c-3.762-3.761-7.893-7.063-12.232-9.799l8.56-8.559c4.461,2.399,8.748,5.609,12.586,9.449c5.089,5.088,9.075,10.963,11.528,16.989
	c3.201,7.865,8.324,15.452,14.814,21.943c6.491,6.49,14.078,11.612,21.941,14.813c6.026,2.453,11.901,6.44,16.991,11.529
	c5.089,5.088,9.075,10.963,11.528,16.989c3.201,7.865,8.324,15.452,14.814,21.943c6.491,6.49,14.078,11.612,21.941,14.813
	c6.026,2.453,11.901,6.44,16.991,11.529c5.089,5.088,9.075,10.963,11.528,16.989c3.201,7.865,8.324,15.452,14.814,21.943
	c6.491,6.49,14.078,11.612,21.941,14.813c6.026,2.453,11.901,6.44,16.991,11.529c5.089,5.088,9.075,10.963,11.528,16.989
	c3.201,7.865,8.324,15.452,14.814,21.943c3.764,3.764,7.905,7.05,12.245,9.786l-8.576,8.577c-4.455-2.396-8.741-5.606-12.581-9.441
	c-5.097-5.105-9.084-10.981-11.529-16.997c-3.202-7.867-8.325-15.456-14.813-21.946c-6.49-6.489-14.078-11.61-21.946-14.812
	c-6.015-2.446-11.891-6.434-16.987-11.52c-5.097-5.105-9.084-10.981-11.529-16.997c-3.202-7.867-8.324-15.455-14.817-21.949
	c-6.508-6.496-14.095-11.616-21.941-14.809c-6.019-2.449-11.891-6.435-16.982-11.526c-5.098-5.097-9.087-10.973-11.535-16.991
	c-3.2-7.866-8.322-15.454-14.817-21.95c-6.506-6.496-14.093-11.616-21.939-14.808c-1.011-0.412-2.147-0.938-3.476-1.612
	c-3.69-1.873-8.206-0.399-10.081,3.296c-1.874,3.693-0.398,8.207,3.296,10.081c1.7,0.863,3.207,1.559,4.606,2.129
	c6.015,2.446,11.891,6.434,16.991,11.525c5.089,5.088,9.074,10.963,11.525,16.992c3.197,7.856,8.323,15.444,14.822,21.945
	c6.495,6.494,14.08,11.616,21.936,14.813c6.015,2.446,11.892,6.434,16.992,11.525c5.087,5.086,9.073,10.962,11.525,16.991
	c3.192,7.849,8.313,15.436,14.817,21.95c6.506,6.496,14.093,11.616,21.94,14.809c6.03,2.453,11.906,6.439,16.992,11.525
	c5.088,5.087,9.074,10.963,11.526,16.992c3.192,7.849,8.313,15.436,14.817,21.95c6.504,6.494,14.091,11.613,21.94,14.809
	c0.916,0.372,1.874,0.553,2.825,0.553c1.953,0,3.871-0.763,5.306-2.197l79.276-79.286c1.777-1.777,2.546-4.326,2.048-6.789
	c-0.499-2.464-2.197-4.514-4.525-5.461c-2.376-0.966-4.724-2.178-7.012-3.594c14.428-2.61,28.156-6.67,40.972-12.142
	c50.713-21.678,90.646-64.421,106.821-114.34C503.422,272.995,505.508,259.379,504.877,246.569z M107.952,182.59
	c5.1,5.101,9.089,10.976,11.535,16.994c3.205,7.875,8.329,15.461,14.813,21.936c6.503,6.502,14.092,11.627,21.945,14.822
	c6.034,2.455,11.904,6.439,16.987,11.529c5.074,5.065,9.063,10.942,11.53,16.987c3.204,7.876,8.328,15.462,14.809,21.933
	c6.466,6.477,14.053,11.602,21.95,14.827c6.032,2.453,11.901,6.438,16.986,11.529c5.074,5.065,9.063,10.942,11.531,16.987
	c3.203,7.873,8.327,15.46,14.809,21.932c6.472,6.482,14.055,11.607,21.944,14.829c6.035,2.452,11.907,6.436,16.992,11.528
	c5.084,5.076,9.068,10.945,11.523,16.984c2.761,6.768,6.982,13.403,12.241,19.229c0.005,0.005,0.01,0.01,0.015,0.016
	c0.011,0.012,0.021,0.023,0.032,0.035c0.944,1.031,1.752,1.88,2.528,2.654c3.758,3.764,7.888,7.068,12.228,9.805l-8.577,8.578
	c-4.46-2.399-8.745-5.608-12.582-9.445c-5.089-5.088-9.075-10.963-11.528-16.991c-3.201-7.863-8.324-15.45-14.814-21.941
	c-6.493-6.492-14.08-11.614-21.941-14.814c-6.027-2.454-11.902-6.44-16.991-11.528c-5.089-5.088-9.075-10.963-11.528-16.991
	c-3.201-7.863-8.324-15.45-14.814-21.941c-6.493-6.492-14.08-11.614-21.941-14.814c-6.027-2.454-11.902-6.44-16.991-11.528
	c-5.089-5.088-9.075-10.963-11.528-16.991c-3.201-7.863-8.324-15.45-14.814-21.941c-6.493-6.492-14.08-11.614-21.941-14.814
	c-6.027-2.454-11.902-6.44-16.991-11.528c-5.089-5.088-9.075-10.963-11.528-16.991c-3.201-7.863-8.324-15.45-14.814-21.941
	c-3.764-3.764-7.903-7.049-12.243-9.785l8.594-8.593C99.838,175.543,104.12,178.753,107.952,182.59z M313.677,455.831
	c-4.459-2.399-8.745-5.608-12.582-9.446c-5.089-5.088-9.075-10.963-11.528-16.989c-3.2-7.864-8.323-15.452-14.814-21.943
	c-6.492-6.491-14.079-11.612-21.941-14.813c-6.027-2.455-11.902-6.441-16.991-11.529c-5.089-5.088-9.075-10.963-11.528-16.989
	c-3.2-7.864-8.323-15.452-14.814-21.943c-6.492-6.491-14.079-11.612-21.941-14.813c-6.027-2.455-11.902-6.441-16.991-11.529
	c-5.089-5.088-9.075-10.963-11.528-16.989c-3.2-7.864-8.323-15.452-14.814-21.943c-6.492-6.491-14.079-11.612-21.941-14.813
	c-6.027-2.455-11.902-6.441-16.991-11.529c-5.089-5.088-9.075-10.963-11.528-16.989c-3.2-7.864-8.323-15.452-14.814-21.943
	c-3.765-3.764-7.904-7.05-12.244-9.786l9.158-9.157c4.46,2.399,8.746,5.608,12.583,9.447c5.089,5.088,9.075,10.963,11.528,16.989
	c3.201,7.865,8.324,15.452,14.814,21.943c6.491,6.49,14.078,11.612,21.941,14.813c6.026,2.453,11.901,6.44,16.991,11.529
	c5.089,5.088,9.075,10.963,11.528,16.989c3.201,7.865,8.324,15.452,14.814,21.943c6.491,6.49,14.078,11.612,21.941,14.813
	c6.026,2.453,11.901,6.44,16.991,11.529c5.089,5.088,9.075,10.963,11.528,16.989c3.201,7.865,8.324,15.452,14.814,21.943
	c6.491,6.49,14.078,11.612,21.941,14.813c6.026,2.453,11.901,6.44,16.991,11.529c5.089,5.088,9.075,10.963,11.528,16.989
	c3.201,7.865,8.324,15.452,14.814,21.943c3.764,3.763,7.903,7.048,12.243,9.784L313.677,455.831z M280.973,466.505
	c-5.089-5.088-9.075-10.963-11.528-16.991c-3.201-7.863-8.324-15.45-14.814-21.941c-6.493-6.492-14.08-11.614-21.941-14.814
	c-6.027-2.454-11.902-6.44-16.991-11.528c-5.089-5.088-9.075-10.963-11.528-16.991c-3.201-7.863-8.324-15.45-14.814-21.941
	c-6.493-6.492-14.08-11.614-21.941-14.814c-6.027-2.454-11.902-6.44-16.991-11.528c-5.089-5.088-9.075-10.963-11.528-16.991
	c-3.201-7.863-8.324-15.45-14.814-21.941c-6.493-6.492-14.08-11.614-21.941-14.814c-6.027-2.454-11.902-6.44-16.991-11.528
	c-5.089-5.088-9.075-10.963-11.528-16.991c-3.201-7.863-8.324-15.45-14.814-21.941c-3.765-3.765-7.906-7.051-12.246-9.787
	l9.176-9.175c4.461,2.399,8.748,5.609,12.585,9.447c5.089,5.089,9.076,10.963,11.528,16.991c3.201,7.864,8.324,15.451,14.814,21.941
	c6.49,6.489,14.077,11.612,21.941,14.814c6.027,2.453,11.902,6.44,16.991,11.528c5.089,5.089,9.076,10.963,11.528,16.991
	c3.201,7.864,8.324,15.451,14.814,21.941c6.49,6.489,14.077,11.612,21.941,14.814c6.027,2.453,11.902,6.44,16.991,11.528
	c5.089,5.089,9.076,10.963,11.528,16.991c3.201,7.864,8.324,15.451,14.814,21.941c6.49,6.489,14.077,11.612,21.941,14.814
	c6.027,2.453,11.902,6.44,16.991,11.528c5.089,5.089,9.076,10.963,11.528,16.991c3.201,7.864,8.324,15.451,14.814,21.941
	c3.764,3.764,7.904,7.049,12.244,9.785l-9.175,9.176C289.097,473.552,284.811,470.344,280.973,466.505z"/>
<path d="M340.026,117.964c-50.042,0-90.754,40.712-90.754,90.754s40.712,90.754,90.754,90.754s90.753-40.712,90.753-90.754
	S390.068,117.964,340.026,117.964z M340.026,284.471c-41.771,0-75.754-33.982-75.754-75.754s33.982-75.754,75.754-75.754
	c41.77,0,75.753,33.982,75.753,75.754S381.797,284.471,340.026,284.471z"/>
<path d="M380.794,73.045v-1.61c0-4.143-3.357-7.5-7.5-7.5c-4.143,0-7.5,3.357-7.5,7.5v1.61c0,4.143,3.357,7.5,7.5,7.5
	C377.438,80.545,380.794,77.187,380.794,73.045z"/>
<path d="M182.272,146.929v1.61c0,4.143,3.357,7.5,7.5,7.5c4.143,0,7.5-3.357,7.5-7.5v-1.61c0-4.143-3.357-7.5-7.5-7.5
	C185.629,139.429,182.272,142.786,182.272,146.929z"/>
<path d="M399.404,86.868v-1.61c0-4.143-3.357-7.5-7.5-7.5s-7.5,3.357-7.5,7.5v1.61c0,4.143,3.357,7.5,7.5,7.5
	S399.404,91.01,399.404,86.868z"/>
<path d="M229.486,147.734v-1.611c0-4.143-3.357-7.5-7.5-7.5c-4.143,0-7.5,3.357-7.5,7.5v1.611c0,4.143,3.357,7.5,7.5,7.5
	C226.129,155.233,229.486,151.877,229.486,147.734z"/>
<path d="M216.128,224.076c-4.143,0-7.5,3.357-7.5,7.5v1.61c0,4.143,3.357,7.5,7.5,7.5s7.5-3.357,7.5-7.5v-1.61
	C223.628,227.433,220.271,224.076,216.128,224.076z"/>
<path d="M242.176,70.803v-1.61c0-4.143-3.357-7.5-7.5-7.5c-4.143,0-7.5,3.357-7.5,7.5v1.61c0,4.143,3.357,7.5,7.5,7.5
	C238.819,78.303,242.176,74.945,242.176,70.803z"/>
<path d="M401.913,301.037v1.61c0,4.143,3.357,7.5,7.5,7.5s7.5-3.357,7.5-7.5v-1.61c0-4.143-3.357-7.5-7.5-7.5
	S401.913,296.894,401.913,301.037z"/>
<path d="M384.405,329.346v1.61c0,4.143,3.357,7.5,7.5,7.5s7.5-3.357,7.5-7.5v-1.61c0-4.143-3.357-7.5-7.5-7.5
	S384.405,325.204,384.405,329.346z"/>
<g>
</g>
<g>
</g>
<g>
</g>
<g>
</g>
<g>
</g>
<g>
</g>
<g>
</g>
<g>
</g>
<g>
</g>
<g>
</g>
<g>
</g>
<g>
</g>
<g>
</g>
<g>
</g>
<g>
</g>
</svg>
