<svg id="Layer_1" data-name="Layer 1" xmlns="http://www.w3.org/2000/svg" viewBox="0 0 512 266.77"><defs><style>.cls-1{fill:#317e46;}.cls-2{fill:#94d6a8;}.cls-3{fill:#addfba;}.cls-4{fill:#4dba69;}</style></defs><title>money</title><path class="cls-1" d="M7.5,133V384.82h497V133H7.5ZM479.85,325a35.19,35.19,0,0,0-35.2,35.2H67.34A35.19,35.19,0,0,0,32.15,325V192.85a35.19,35.19,0,0,0,35.19-35.19H444.66a35.19,35.19,0,0,0,35.2,35.2V325Z" transform="translate(0 -125.54)"/><path class="cls-2" d="M444.66,157.66H67.34a35.19,35.19,0,0,1-35.19,35.19V325a35.19,35.19,0,0,1,35.19,35.2H444.66a35.19,35.19,0,0,1,35.2-35.2V192.85A35.2,35.2,0,0,1,444.66,157.66Z" transform="translate(0 -125.54)"/><path class="cls-3" d="M255,157.66H67.34a35.19,35.19,0,0,1-35.19,35.19V325a35.19,35.19,0,0,1,35.19,35.2H255V157.66Z" transform="translate(0 -125.54)"/><circle class="cls-1" cx="256" cy="133.39" r="75.08"/><path class="cls-4" d="M255.59,183.85a75.08,75.08,0,0,0,0,150.15V183.85h0Z" transform="translate(0 -125.54)"/><circle class="cls-1" cx="404.64" cy="133.39" r="28.21"/><circle class="cls-1" cx="107.36" cy="133.39" r="28.21"/><path d="M256,341.51a82.58,82.58,0,1,0-82.58-82.59A82.68,82.68,0,0,0,256,341.51Zm0-150.17a67.58,67.58,0,1,1-67.58,67.59A67.66,67.66,0,0,1,256,191.34Z" transform="translate(0 -125.54)"/><path d="M0,125.54V392.32H512V125.54H0ZM497,377.32H15V140.54H497V377.32Z" transform="translate(0 -125.54)"/><path d="M59.84,360.2v7.5H452.16v-7.5a27.73,27.73,0,0,1,27.69-27.7h7.5V185.35h-7.5a27.73,27.73,0,0,1-27.69-27.69v-7.5H59.84v7.5a27.73,27.73,0,0,1-27.69,27.7h-7.5V332.5h7.5A27.73,27.73,0,0,1,59.84,360.2ZM39.65,199.69a42.81,42.81,0,0,0,34.53-34.54H437.82a42.8,42.8,0,0,0,34.54,34.54V318.16a42.81,42.81,0,0,0-34.54,34.54H74.18a42.8,42.8,0,0,0-34.53-34.54V199.69h0Z" transform="translate(0 -125.54)"/><path d="M404.64,294.64a35.71,35.71,0,1,0-35.71-35.71A35.75,35.75,0,0,0,404.64,294.64Zm0-56.41a20.71,20.71,0,1,1-20.71,20.71A20.73,20.73,0,0,1,404.64,238.22Z" transform="translate(0 -125.54)"/><path d="M107.36,294.64a35.71,35.71,0,1,0-35.71-35.71A35.75,35.75,0,0,0,107.36,294.64Zm0-56.41a20.71,20.71,0,1,1-20.71,20.71A20.73,20.73,0,0,1,107.36,238.22Z" transform="translate(0 -125.54)"/><path d="M247.76,288.11a54.88,54.88,0,0,1-9.07-3.13,62.69,62.69,0,0,1-7.09-3.7,24.44,24.44,0,0,1-4.15-3l-7.79,15.2a62.25,62.25,0,0,0,17.88,8.69,69.43,69.43,0,0,0,11,2.42v11.87h15V304.92a51.86,51.86,0,0,0,6.94-1.16,32.17,32.17,0,0,0,10.73-4.66,23.08,23.08,0,0,0,7.41-8.37,26.25,26.25,0,0,0,2.75-12.46,24.38,24.38,0,0,0-2-10.54,21.12,21.12,0,0,0-5.81-7.35,32.74,32.74,0,0,0-9.2-5.11c-3.26-1.22-6.86-2.38-10.77-3.47V229.23l0.48,0.11a50,50,0,0,1,7.35,2.49,39.81,39.81,0,0,1,5.75,3,22,22,0,0,1,3.26,2.43L288.13,223a65.73,65.73,0,0,0-14.05-7.09,47.1,47.1,0,0,0-10.58-2.57v-11h-15v11.24a40.46,40.46,0,0,0-5,1.18A32.13,32.13,0,0,0,233,220.14a24.78,24.78,0,0,0-7.09,8.94,28.17,28.17,0,0,0-2.56,12.26,23,23,0,0,0,1.6,9,18.63,18.63,0,0,0,4.79,6.64,29.69,29.69,0,0,0,8,5,81.49,81.49,0,0,0,10.77,3.74v22.55Zm15.74-17.78c0.95,0.38,1.85.77,2.66,1.17a14.11,14.11,0,0,1,4.73,3.58,7.66,7.66,0,0,1,1.66,5q0,7.34-9,8.89V270.33Zm-16.76-23.87a11.57,11.57,0,0,1-3.9-3.26,7.74,7.74,0,0,1-1.34-4.66,8.87,8.87,0,0,1,3.58-7.54,11.54,11.54,0,0,1,3.42-1.7v18C247.87,247,247.28,246.76,246.74,246.46Z" transform="translate(0 -125.54)"/></svg>