<?xml version="1.0" encoding="iso-8859-1"?>
<!-- Generator: Adobe Illustrator 19.0.0, SVG Export Plug-In . SVG Version: 6.00 Build 0)  -->
<svg version="1.1" id="Layer_1" xmlns="http://www.w3.org/2000/svg" xmlns:xlink="http://www.w3.org/1999/xlink" x="0px" y="0px"
	 viewBox="0 0 511.999 511.999" style="enable-background:new 0 0 511.999 511.999;" xml:space="preserve">
<path style="fill:#F2F2F2;" d="M341.274,45.48c-1.92,0-3.865-0.504-5.632-1.561c-9.261-5.536-18.959-10.039-29.016-13.5
	c6.399,16.078,9.734,33.297,9.734,50.837c0,24.227-6.391,48.053-18.483,68.902c-8.71,15.017-20.226,28.268-33.796,39.007
	c13.112,5.004,27.121,7.619,41.279,7.619c20.509,0,40.633-5.432,58.226-15.715c0.126-0.081,0.254-0.161,0.385-0.239
	c17.728-10.454,32.279-25.358,42.287-43.267c-6.979-26.404-20.861-50.552-40.345-70.047c-4.205-4.207-4.279-10.967-0.246-15.278
	c-4.814-4.219-9.87-8.17-15.151-11.819C348.427,43.669,344.902,45.48,341.274,45.48z"/>
<path style="fill:#CCCCCC;" d="M320.824,396.087c0-2.588-0.167-5.17-0.499-7.677c-0.483-3.695-1.32-7.321-2.482-10.838
	c-48.801-11.702-57.403-18.758-60.298-21.135c-1.325-1.09-2.562-2.26-3.723-3.489c-1.16,1.226-2.393,2.395-3.717,3.483
	c-2.75,2.257-10.905,8.94-55.555,19.982c-1.411,3.986-2.392,8.099-2.909,12.287c-0.311,2.46-0.467,4.935-0.467,7.387
	c0,46.161,48.329,81.345,64.784,91.984C272.404,477.304,320.824,441.718,320.824,396.087z"/>
<path style="fill:#FFE5CD;" d="M358.56,208.101c-16.757,7.019-34.851,10.681-53.199,10.681c-22.055,0-43.818-5.319-63.28-15.407
	c-19.461,10.087-41.184,15.407-63.257,15.407c-8.561,0-17.053-0.793-25.384-2.351v88.051c0,16.626,4.122,32.557,12.015,46.875
	c8.974-19.823,23.251-48.801,33.474-57.207c8.323-6.837,18.8-10.025,29.518-8.974c9.794,0.96,18.702,5.364,25.379,12.467
	c14.4-15.279,38.445-17.012,54.9-3.497c10.968,9.019,26.599,41.705,35.345,61.372c9.376-15.299,14.492-32.919,14.492-51.036v-96.381
	H358.56z M205.407,275.786c-16.623,0-30.147-13.524-30.147-30.147c0-6.073,4.925-10.998,10.998-10.998s10.998,4.925,10.998,10.998
	c0,4.494,3.656,8.15,8.15,8.15c4.501,0,8.161-3.656,8.161-8.15c0-6.073,4.925-10.998,10.998-10.998s10.998,4.925,10.998,10.998
	C235.564,262.263,222.035,275.786,205.407,275.786z M305.361,275.786c-16.629,0-30.158-13.524-30.158-30.147
	c0-6.073,4.925-10.998,10.998-10.998c6.073,0,10.998,4.925,10.998,10.998c0,4.494,3.66,8.15,8.161,8.15
	c4.494,0,8.15-3.656,8.15-8.15c0-6.073,4.925-10.998,10.998-10.998c6.073,0,10.998,4.925,10.998,10.998
	C335.507,262.263,321.984,275.786,305.361,275.786z"/>
<g>
	<path style="fill:#F2F2F2;" d="M242.822,325.279c0-4.282-1.439-8.292-4.16-11.601c-3.11-3.789-7.498-6.133-12.363-6.61
		c-0.608-0.06-1.214-0.089-1.817-0.089c-4.223,0-8.281,1.446-11.588,4.164c-4.869,4.003-15.349,23.444-25.065,44.273
		c30.263-7.42,44.937-13.21,48.313-15.981C240.385,335.946,242.822,330.785,242.822,325.279z"/>
	<path style="fill:#F2F2F2;" d="M294.756,311.14c-3.397-2.79-7.509-4.149-11.599-4.149c-5.296,0-10.554,2.279-14.173,6.684
		c-2.724,3.319-4.165,7.334-4.165,11.606c0,5.505,2.438,10.666,6.688,14.16c3.448,2.83,18.166,8.594,48.319,15.979
		C310.111,334.589,299.628,315.145,294.756,311.14z"/>
</g>
<path style="fill:#CCCCCC;" d="M380.557,269.595c19.85-26.669,30.884-59.347,30.884-92.938c-0.013-2.533-0.1-5.065-0.236-7.594
	c-8.76,10.557-19.074,19.773-30.647,27.338V269.595z"/>
<path style="fill:#F2F2F2;" d="M294.362,81.257c0-20.299-5.29-40.093-15.338-57.547c-0.639-0.095-1.276-0.196-1.917-0.283
	c-0.023-0.003-0.046-0.007-0.069-0.01c-1.073-0.147-2.13-0.282-3.185-0.404c-0.037-0.003-0.181-0.02-0.219-0.023
	c-1.163-0.125-2.336-0.251-3.508-0.354c-0.261-0.023-0.516-0.041-0.775-0.063c-0.837-0.075-1.677-0.143-2.52-0.202
	c-0.107-0.004-0.213-0.009-0.32-0.016c-1.131-0.08-2.263-0.141-3.405-0.191c-1.104-0.049-2.2-0.088-3.294-0.118
	c-0.045-0.001-0.091-0.002-0.136-0.004c-0.088,0-0.176-0.001-0.265-0.003c-1.112-0.03-2.224-0.038-3.345-0.038l-6.104,0.117
	c-0.002,0-0.005,0-0.008,0c-0.285,0.005-0.565,0.02-0.848,0.033l-0.125,0.005l-0.954,0.047c-0.695,0.032-1.318,0.07-1.928,0.109
	l-5.835,0.476c-0.278,0.023-0.561,0.054-0.837,0.085c-0.01,0.001-0.02,0.002-0.03,0.003l0,0c-0.003,0-0.008,0.001-0.011,0.001
	c-0.428,0.045-0.756,0.077-1.08,0.119c-0.071,0.01-0.145,0.019-0.218,0.026c-0.631,0.069-1.263,0.15-1.895,0.23
	c-0.615,0.078-1.225,0.156-1.837,0.242l-5.38,0.847c-0.552,0.09-1.095,0.191-1.649,0.299l-1.978,0.383
	c-0.597,0.12-1.194,0.239-1.792,0.368l-0.2,0.042c-0.396,0.082-0.794,0.165-1.181,0.256l-1.324,0.301
	c-0.609,0.139-1.214,0.282-1.831,0.432l-1.037,0.257c-0.265,0.066-0.54,0.14-0.811,0.209c-0.293,0.075-0.588,0.148-0.88,0.227
	l-5.593,1.585l-0.459,0.141c-0.348,0.107-0.694,0.211-1.035,0.324c-0.029,0.009-0.055,0.018-0.082,0.026l-4.95,1.654
	c-0.297,0.1-0.641,0.225-0.989,0.351l-0.241,0.087l-8.57,3.412c-0.271,0.117-0.541,0.232-0.813,0.354l-10.231,4.947
	c-0.927,0.491-1.852,0.991-2.771,1.505c-0.058,0.032-0.117,0.063-0.175,0.095l-8.27,4.954c-0.927,0.597-1.846,1.202-2.754,1.817
	l-3.391,2.346c-0.003,0.002-0.008,0.006-0.012,0.009c-0.871,0.613-1.719,1.236-2.569,1.869l-4.886,3.785
	c-0.77,0.621-1.531,1.244-2.28,1.874c-0.046,0.038-0.089,0.076-0.134,0.114c-0.845,0.697-1.672,1.414-2.499,2.148
	c-0.052,0.045-0.103,0.09-0.155,0.135l-1.391,1.234c-0.646,0.581-1.286,1.172-1.925,1.766c-0.309,0.288-0.626,0.586-0.949,0.893
	c-0.405,0.383-0.807,0.768-1.208,1.155c-1.649,1.593-3.344,3.305-5.024,5.078c-0.002,0.003-0.006,0.005-0.008,0.008
	c-0.807,0.857-1.624,1.748-2.434,2.647l-1.252,1.4c-1.568,1.788-3.136,3.658-4.622,5.514c-0.004,0.006-0.009,0.011-0.013,0.017
	c-0.011,0.013-0.022,0.027-0.033,0.041c-0.388,0.483-0.76,0.955-1.121,1.417c-0.394,0.502-0.758,0.976-1.12,1.45
	c-0.001,0.001-0.001,0.002-0.002,0.003c-0.008,0.01-0.015,0.021-0.023,0.031c-1.133,1.486-2.235,2.989-3.309,4.508
	c-0.024,0.034-0.049,0.069-0.074,0.103c-16.417,23.249-26.022,50.252-27.973,78.675c12.803,11.683,28.143,20.403,44.641,25.338
	c10.73,3.228,21.905,4.861,33.231,4.861c20.456,0,40.552-5.416,58.118-15.66c0.032-0.02,0.064-0.037,0.096-0.056
	c0.312-0.178,0.636-0.366,0.948-0.554c0.007-0.003,0.014-0.008,0.021-0.012C272.768,159.729,294.362,121.699,294.362,81.257z"/>
<path style="fill:#CCCCCC;" d="M131.442,210.383c-10.505-3.857-20.532-9.019-29.815-15.322
	c3.172,27.286,13.395,52.846,29.815,74.672V210.383z"/>
<g>
	<path style="fill:#2E0C08;" d="M433.438,176.6c-0.069-13.555-1.672-27.054-4.76-40.118c-7.534-31.929-23.856-61.155-47.204-84.515
		c-4.295-4.297-11.257-4.298-15.555-0.004c-0.089,0.089-0.165,0.186-0.251,0.277c-4.033,4.311-3.959,11.071,0.246,15.278
		c19.484,19.494,33.366,43.642,40.345,70.047c-10.009,17.908-24.558,32.813-42.287,43.267c-0.13,0.077-0.257,0.157-0.385,0.239
		c-17.593,10.282-37.717,15.715-58.226,15.715c-14.159,0-28.167-2.614-41.279-7.619c13.57-10.739,25.086-23.99,33.796-39.007
		c12.092-20.849,18.483-44.675,18.483-68.902c0-17.54-3.335-34.76-9.734-50.837c10.057,3.46,19.755,7.963,29.016,13.5
		c1.767,1.057,3.712,1.561,5.632,1.561c3.628,0,7.153-1.809,9.243-5.058c0.066-0.103,0.144-0.194,0.208-0.3
		c3.117-5.213,1.417-11.966-3.797-15.083c-18.347-10.969-38.192-18.404-59.095-22.174c-0.02-0.003-0.038-0.01-0.058-0.013
		c-0.342-0.063-0.69-0.115-1.034-0.176c-0.873-0.152-1.744-0.307-2.621-0.445c-1.174-0.187-2.344-0.359-3.509-0.519
		c-0.191-0.026-0.382-0.059-0.574-0.085c-0.016-0.002-0.034-0.004-0.052-0.007c-1.194-0.164-2.401-0.317-3.566-0.452
		c-0.039-0.004-0.08-0.009-0.118-0.013c-0.009-0.001-0.018-0.002-0.026-0.003c-0.003,0-0.007,0-0.009,0
		c-0.062-0.007-0.125-0.013-0.189-0.02c-0.001,0-0.002,0-0.004-0.001c-0.011-0.001-0.023-0.002-0.034-0.003
		c-0.036-0.003-0.069-0.008-0.108-0.011c-0.51-0.055-1.018-0.101-1.531-0.154c-0.762-0.078-1.522-0.163-2.287-0.231
		c-1.301-0.128-2.613-0.223-3.925-0.317c-0.142-0.01-0.285-0.018-0.427-0.023c-0.1-0.007-0.201-0.01-0.301-0.016
		c-1.113-0.074-2.218-0.134-3.258-0.179c-0.041-0.002-0.08-0.004-0.121-0.007c-1.312-0.059-2.625-0.106-3.937-0.14
		c-0.095-0.002-0.189-0.003-0.285-0.003h-0.009c-0.464-0.012-0.932-0.008-1.396-0.014C257.638,0.018,256.822,0,255.999,0
		c-0.024,0-0.047,0.003-0.071,0.003c-0.047,0-0.092-0.001-0.14-0.001l-6.301,0.12c-0.469,0.01-0.932,0.03-1.398,0.052l-0.484,0.022
		c-0.004,0-0.009,0.001-0.014,0.001c-0.046,0.001-0.092,0.004-0.139,0.007l-0.525,0.029c-0.764,0.034-1.542,0.081-2.307,0.13
		c-0.069,0.004-0.137,0.01-0.207,0.015l-5.909,0.482c-0.001,0-0.003,0-0.004,0c-0.004,0-0.008,0.001-0.012,0.001l-0.011,0.001
		c-0.503,0.041-1.018,0.096-1.444,0.143c-0.022,0.002-0.044,0.005-0.065,0.008c0,0-0.001,0-0.002,0l0,0
		c-0.462,0.047-0.925,0.097-1.387,0.155c-0.72,0.08-1.442,0.17-2.159,0.262c-0.751,0.096-1.499,0.191-2.248,0.298
		c-0.053,0.008-0.104,0.015-0.157,0.023l-5.582,0.879c-0.79,0.129-1.565,0.271-2.316,0.419l-2.061,0.398
		c-0.716,0.143-1.432,0.287-2.082,0.428l-0.13,0.026c-0.571,0.12-1.142,0.241-1.629,0.355L217.15,4.27
		c-0.002,0-0.004,0.001-0.006,0.001h-0.001l-1.19,0.272c-0.726,0.166-1.439,0.333-2.193,0.518l-1.093,0.272
		c-0.731,0.183-1.45,0.365-2.169,0.561c-0.038,0.011-0.077,0.022-0.115,0.032l-5.88,1.666c-0.751,0.22-1.489,0.452-2.295,0.716
		l-5.059,1.69c-0.485,0.164-0.963,0.337-1.444,0.511l-0.375,0.134c-0.112,0.041-0.223,0.082-0.334,0.126l-8.546,3.388
		c-0.078,0.031-0.156,0.064-0.234,0.097c-0.008,0.003-0.016,0.005-0.024,0.009c-0.02,0.009-0.04,0.018-0.06,0.026
		c-0.006,0.002-0.011,0.004-0.018,0.008l-0.476,0.207c-0.386,0.165-0.774,0.334-1.164,0.507c-0.1,0.045-0.2,0.092-0.299,0.14
		l-10.646,5.148c-0.118,0.058-0.235,0.117-0.352,0.178c-1.204,0.637-2.406,1.297-3.6,1.954c-0.014,0.008-0.029,0.016-0.043,0.024
		c-0.011,0.007-0.023,0.012-0.034,0.019c-0.008,0.004-0.015,0.01-0.023,0.014c-0.078,0.044-0.155,0.088-0.232,0.134l-8.612,5.157
		c-0.1,0.06-0.199,0.121-0.297,0.185c-1.121,0.72-2.23,1.451-3.282,2.166l-0.295,0.197c-0.327,0.219-0.651,0.444-0.976,0.667
		l-0.361,0.245c-0.058,0.038-0.114,0.078-0.173,0.118l-1.925,1.351c-0.001,0.001-0.003,0.002-0.004,0.003
		c-0.004,0.003-0.009,0.007-0.014,0.01l-0.037,0.026c-1.017,0.725-2.034,1.461-3.04,2.208c-0.057,0.043-0.114,0.087-0.172,0.131
		l-5.113,3.961c-0.029,0.023-0.058,0.046-0.087,0.069c-0.004,0.004-0.01,0.007-0.015,0.011c-0.012,0.01-0.024,0.02-0.036,0.03
		c-0.012,0.01-0.024,0.019-0.035,0.029c-0.907,0.732-1.802,1.464-2.651,2.179c-0.018,0.014-0.035,0.029-0.053,0.043
		c-0.981,0.809-1.985,1.673-3.144,2.701c-0.014,0.012-0.027,0.024-0.042,0.036l-1.517,1.346l-0.001,0.001
		c-0.002,0.002-0.003,0.003-0.004,0.004l-0.007,0.006c-0.734,0.661-1.481,1.348-2.257,2.072c-0.322,0.3-0.641,0.602-0.961,0.904
		c-0.434,0.411-0.877,0.831-1.333,1.27c-0.052,0.049-0.103,0.103-0.155,0.153c-0.932,0.902-1.853,1.81-2.762,2.728
		c0,0,0,0.001-0.001,0.001c-0.98,0.99-1.948,1.985-2.894,2.987c-0.004,0.004-0.009,0.01-0.013,0.014
		c-0.011,0.011-0.022,0.022-0.032,0.033c-0.859,0.913-1.712,1.841-2.586,2.809c-0.049,0.056-0.102,0.109-0.152,0.165
		c-0.493,0.522-0.987,1.076-1.506,1.685c-1.748,1.974-3.513,4.082-5.251,6.265c-0.003,0.004-0.007,0.008-0.01,0.012
		c-0.004,0.005-0.009,0.011-0.013,0.015c-0.098,0.122-0.189,0.241-0.287,0.363c-0.354,0.437-0.708,0.872-1.044,1.317
		c-0.361,0.451-0.702,0.901-1.042,1.351c-0.071,0.093-0.142,0.183-0.214,0.277c-0.005,0.007-0.011,0.014-0.016,0.022
		c-0.007,0.009-0.014,0.019-0.022,0.027c-0.572,0.75-1.133,1.507-1.692,2.265c-0.11,0.148-0.223,0.296-0.332,0.444
		c-22.393,30.528-34.215,66.674-34.215,104.808c0.217,47.05,19.432,92.519,52.881,125.526v1.466
		c0,27.565,9.205,53.564,26.611,75.179c3.454,4.296,7.223,8.38,11.245,12.19c-0.075,1.413-0.121,2.828-0.121,4.237
		c0,68.322,78.141,112.666,81.467,114.52c1.665,0.928,3.51,1.392,5.355,1.392c1.871,0,3.743-0.477,5.426-1.431
		c3.323-1.885,81.397-46.93,81.397-114.482c0-1.421-0.047-2.84-0.121-4.254c24.113-22.867,37.857-54.424,37.857-87.352v-1.466
		C414.221,269.798,433.438,224.024,433.438,176.6z M191.173,396.087c0-2.452,0.156-4.926,0.467-7.387
		c0.516-4.188,1.498-8.301,2.909-12.287c44.649-11.042,52.806-17.724,55.555-19.982c1.323-1.088,2.557-2.257,3.717-3.483
		c1.161,1.229,2.398,2.399,3.723,3.489c2.895,2.376,11.496,9.431,60.298,21.135c1.163,3.518,2,7.143,2.482,10.838
		c0.332,2.507,0.499,5.09,0.499,7.677c0,45.63-48.421,81.217-64.867,91.984C239.504,477.432,191.173,442.248,191.173,396.087z
		 M411.204,169.063c0.135,2.529,0.223,5.061,0.236,7.594c0,33.591-11.034,66.269-30.884,92.938v-73.194
		C392.132,188.836,402.445,179.62,411.204,169.063z M344.067,355.517c-8.746-19.666-24.377-52.353-35.345-61.372
		c-16.455-13.515-40.501-11.78-54.9,3.497c-6.677-7.104-15.585-11.508-25.379-12.467c-10.718-1.051-21.195,2.137-29.518,8.974
		c-10.222,8.406-24.5,37.385-33.474,57.207c-7.892-14.319-12.015-30.25-12.015-46.875V216.43c8.331,1.558,16.823,2.351,25.384,2.351
		c22.073,0,43.796-5.321,63.257-15.407c19.463,10.088,41.224,15.407,63.28,15.407c18.349,0,36.442-3.661,53.2-10.681v96.381
		C358.56,322.598,353.444,340.218,344.067,355.517z M187.828,355.416c9.716-20.829,20.196-40.27,25.065-44.273
		c3.307-2.718,7.365-4.164,11.588-4.164c0.603,0,1.21,0.029,1.817,0.089c4.866,0.477,9.253,2.82,12.363,6.61
		c2.722,3.309,4.16,7.319,4.16,11.601c0,5.506-2.437,10.666-6.682,14.156C232.766,342.207,218.091,347.997,187.828,355.416z
		 M271.507,339.44c-4.25-3.494-6.688-8.656-6.688-14.161c0-4.272,1.442-8.286,4.165-11.606c3.618-4.405,8.876-6.684,14.173-6.684
		c4.09,0,8.202,1.358,11.599,4.149c4.872,4.007,15.355,23.45,25.071,44.28C289.673,348.034,274.955,342.27,271.507,339.44z
		 M238.005,180.502c-0.007,0.004-0.014,0.009-0.021,0.012c-0.312,0.188-0.636,0.376-0.948,0.554
		c-0.032,0.019-0.064,0.036-0.096,0.056c-17.566,10.244-37.662,15.66-58.118,15.66c-11.326,0-22.501-1.633-33.231-4.861
		c-16.498-4.935-31.837-13.656-44.641-25.338c1.95-28.423,11.556-55.427,27.973-78.675c0.024-0.034,0.049-0.069,0.074-0.103
		c1.075-1.519,2.177-3.022,3.309-4.508c0.008-0.01,0.015-0.021,0.023-0.031c0.001-0.001,0.001-0.002,0.002-0.003
		c0.362-0.474,0.726-0.948,1.12-1.45c0.361-0.462,0.732-0.934,1.121-1.417c0.011-0.013,0.022-0.027,0.033-0.041
		c0.004-0.006,0.009-0.011,0.013-0.016c1.486-1.855,3.053-3.724,4.622-5.514l1.252-1.4c0.809-0.901,1.627-1.791,2.434-2.647
		c0.002-0.002,0.006-0.006,0.008-0.008c1.681-1.774,3.377-3.485,5.024-5.078c0.4-0.387,0.803-0.772,1.208-1.155
		c0.323-0.306,0.64-0.604,0.949-0.893c0.638-0.594,1.278-1.186,1.925-1.766l1.391-1.234c0.052-0.045,0.103-0.09,0.155-0.135
		c0.827-0.734,1.654-1.45,2.499-2.148c0.046-0.038,0.089-0.076,0.134-0.114c0.75-0.63,1.51-1.253,2.28-1.874l4.886-3.785
		c0.85-0.632,1.698-1.255,2.569-1.869c0.003-0.002,0.008-0.005,0.012-0.009l3.391-2.346c0.908-0.616,1.827-1.221,2.754-1.817
		l8.27-4.954c0.057-0.032,0.117-0.063,0.175-0.095c0.919-0.514,1.844-1.014,2.771-1.505l10.231-4.947
		c0.272-0.121,0.542-0.238,0.813-0.354l8.57-3.412l0.241-0.087c0.348-0.125,0.693-0.252,0.989-0.351l4.95-1.654
		c0.029-0.009,0.055-0.018,0.082-0.026c0.342-0.113,0.687-0.218,1.035-0.324l0.459-0.141l5.593-1.585
		c0.291-0.079,0.586-0.152,0.88-0.227c0.271-0.069,0.546-0.142,0.811-0.209l1.037-0.257c0.617-0.151,1.222-0.294,1.831-0.432
		l1.324-0.301c0.388-0.091,0.785-0.174,1.181-0.256l0.2-0.042c0.597-0.13,1.194-0.249,1.792-0.368l1.978-0.383
		c0.552-0.109,1.095-0.209,1.649-0.299l5.38-0.847c0.612-0.086,1.222-0.163,1.837-0.242c0.631-0.08,1.263-0.161,1.895-0.23
		c0.073-0.009,0.146-0.018,0.218-0.026c0.326-0.042,0.653-0.074,1.08-0.119c0.003,0,0.008-0.001,0.011-0.001l0,0
		c0.01-0.001,0.02-0.002,0.03-0.003c0.276-0.031,0.559-0.063,0.837-0.085l5.835-0.476c0.61-0.037,1.233-0.076,1.928-0.109
		l0.954-0.047l0.125-0.005c0.283-0.014,0.563-0.027,0.848-0.033c0.002,0,0.006,0,0.008,0l6.104-0.117
		c1.121,0,2.233,0.01,3.345,0.038c0.089,0.003,0.177,0.003,0.265,0.003c0.045,0.001,0.091,0.002,0.136,0.004
		c1.094,0.03,2.19,0.069,3.294,0.118c1.142,0.051,2.273,0.111,3.405,0.191c0.107,0.008,0.213,0.012,0.32,0.016
		c0.842,0.06,1.682,0.128,2.52,0.202c0.26,0.022,0.515,0.04,0.775,0.063c1.172,0.104,2.347,0.229,3.509,0.354
		c0.037,0.003,0.181,0.02,0.219,0.023c1.056,0.122,2.113,0.256,3.185,0.404c0.023,0.003,0.046,0.007,0.069,0.01
		c0.641,0.087,1.278,0.188,1.917,0.283c10.048,17.455,15.338,37.248,15.338,57.547C294.362,121.699,272.768,159.729,238.005,180.502
		z M131.442,210.383v59.349c-16.42-21.825-26.643-47.386-29.815-74.672C110.91,201.364,120.937,206.526,131.442,210.383z"/>
	<path style="fill:#2E0C08;" d="M224.566,234.641c-6.073,0-10.998,4.925-10.998,10.998c0,4.494-3.66,8.15-8.161,8.15
		c-4.494,0-8.15-3.656-8.15-8.15c0-6.073-4.925-10.998-10.998-10.998s-10.998,4.925-10.998,10.998
		c0,16.623,13.524,30.147,30.147,30.147c16.629,0,30.158-13.524,30.158-30.147C235.564,239.565,230.639,234.641,224.566,234.641z"/>
	<path style="fill:#2E0C08;" d="M324.509,234.641c-6.073,0-10.998,4.925-10.998,10.998c0,4.494-3.656,8.15-8.15,8.15
		c-4.501,0-8.161-3.656-8.161-8.15c0-6.073-4.925-10.998-10.998-10.998c-6.073,0-10.998,4.925-10.998,10.998
		c0,16.623,13.529,30.147,30.158,30.147c16.623,0,30.147-13.524,30.147-30.147C335.507,239.565,330.582,234.641,324.509,234.641z"/>
</g>
<g>
</g>
<g>
</g>
<g>
</g>
<g>
</g>
<g>
</g>
<g>
</g>
<g>
</g>
<g>
</g>
<g>
</g>
<g>
</g>
<g>
</g>
<g>
</g>
<g>
</g>
<g>
</g>
<g>
</g>
</svg>
