<?xml version="1.0" encoding="iso-8859-1"?>
<!-- Generator: Adobe Illustrator 19.0.0, SVG Export Plug-In . SVG Version: 6.00 Build 0)  -->
<svg version="1.1" id="Layer_1" xmlns="http://www.w3.org/2000/svg" xmlns:xlink="http://www.w3.org/1999/xlink" x="0px" y="0px"
	 viewBox="0 0 512 512" style="enable-background:new 0 0 512 512;" xml:space="preserve">
<rect x="213.145" y="11.131" style="fill:#FED159;" width="85.708" height="130.321"/>
<rect x="213.145" y="141.452" style="fill:#CC7400;" width="85.708" height="359.417"/>
<g>
	<path style="fill:#057091;" d="M213.145,140.34V49.576C104.519,61.135,22.25,115.821,22.25,181.549c0,0.886,0.029,1.769,0.058,2.65
		c31.242-21.674,103.253-38.511,190.837-42.746L213.145,140.34L213.145,140.34z"/>
	<path style="fill:#057091;" d="M298.853,49.576v90.765v1.113c87.584,4.235,159.594,21.071,190.837,42.746
		c0.03-0.882,0.058-1.764,0.058-2.65C489.749,115.821,407.481,61.135,298.853,49.576z"/>
</g>
<path d="M255.999,104.616c-6.148,0-11.131-4.984-11.131-11.131V60.449c0-6.146,4.983-11.131,11.131-11.131
	c6.148,0,11.131,4.984,11.131,11.131v33.038C267.13,99.633,262.147,104.616,255.999,104.616z"/>
<path d="M441.317,86.058c-34.133-23.323-80.462-39.635-131.331-46.361V11.131C309.986,4.984,305.002,0,298.855,0h-85.708
	c-6.148,0-11.131,4.984-11.131,11.131v28.566c-50.869,6.725-97.199,23.039-131.331,46.361
	c-38.411,26.247-59.565,60.158-59.565,95.49c0,1.012,0.031,2.019,0.066,3.029c0.138,4.072,2.49,7.743,6.131,9.571
	c1.577,0.791,3.288,1.183,4.992,1.183c2.23,0,4.449-0.67,6.346-1.986c28.533-19.795,95.79-35.248,173.361-40.117v347.64
	c0,6.146,4.983,11.131,11.131,11.131h85.708c6.148,0,11.131-4.984,11.131-11.131V153.228c77.57,4.869,144.828,20.321,173.362,40.118
	c1.898,1.316,4.116,1.985,6.346,1.985c1.705,0,3.417-0.392,4.996-1.184c3.642-1.83,5.993-5.502,6.129-9.577
	c0.033-1.005,0.065-2.011,0.065-3.021C500.88,146.217,479.726,112.305,441.317,86.058z M224.276,22.262h63.446v27.314v80.746
	h-63.446V49.576L224.276,22.262L224.276,22.262z M83.243,104.439c30.666-20.954,72.477-35.789,118.772-42.277v68.752
	c-68.919,4.196-129.297,16.389-166.311,33.208C41.474,142.508,57.856,121.787,83.243,104.439z M287.723,489.738H267.13V234.217
	c0-6.146-4.983-11.131-11.131-11.131c-6.148,0-11.131,4.984-11.131,11.131v255.521h-20.592V152.584h63.446V489.738z
	 M309.984,130.913V62.162c46.295,6.488,88.106,21.323,118.772,42.277c25.387,17.348,41.768,38.068,47.539,59.682
	C439.281,147.302,378.904,135.109,309.984,130.913z"/>
<path d="M255.999,208.616c-2.927,0-5.799-1.191-7.87-3.261c-0.512-0.512-0.98-1.08-1.38-1.693c-0.401-0.601-0.746-1.247-1.024-1.925
	c-0.278-0.669-0.501-1.369-0.634-2.081c-0.145-0.712-0.223-1.447-0.223-2.171c0-0.722,0.078-1.458,0.223-2.171
	c0.134-0.712,0.356-1.414,0.634-2.093c0.278-0.668,0.623-1.313,1.024-1.915c0.401-0.612,0.868-1.181,1.38-1.693
	c0.512-0.512,1.08-0.98,1.692-1.379c0.601-0.401,1.247-0.746,1.915-1.024c0.679-0.278,1.38-0.501,2.093-0.634
	c1.436-0.289,2.905-0.289,4.341,0c0.712,0.134,1.414,0.356,2.081,0.634c0.679,0.278,1.325,0.623,1.926,1.024
	c0.612,0.4,1.18,0.867,1.692,1.379c0.512,0.512,0.98,1.081,1.38,1.693c0.412,0.601,0.746,1.247,1.024,1.915
	c0.278,0.679,0.501,1.38,0.646,2.093c0.145,0.714,0.211,1.448,0.211,2.171c0,0.723-0.067,1.459-0.211,2.171
	c-0.145,0.712-0.367,1.414-0.646,2.081c-0.278,0.678-0.612,1.323-1.024,1.925c-0.401,0.613-0.868,1.181-1.38,1.693
	c-0.512,0.512-1.08,0.98-1.692,1.391c-0.601,0.39-1.247,0.735-1.926,1.013c-0.668,0.278-1.369,0.5-2.081,0.633
	C257.458,208.538,256.723,208.616,255.999,208.616z"/>
<g>
</g>
<g>
</g>
<g>
</g>
<g>
</g>
<g>
</g>
<g>
</g>
<g>
</g>
<g>
</g>
<g>
</g>
<g>
</g>
<g>
</g>
<g>
</g>
<g>
</g>
<g>
</g>
<g>
</g>
</svg>
